<svg width="629" height="132" viewBox="0 0 629 132" fill="none" xmlns="http://www.w3.org/2000/svg">
<path d="M74.4283 21.054V31.064C68.4223 25.916 61.2723 22.484 53.2643 21.054H74.4283ZM74.4283 109.714H53.2643C61.2723 108.284 68.4223 104.709 74.4283 99.561V109.714ZM89.5863 35.354H78.7183C77.5743 34.067 76.5733 32.923 75.2863 31.779V21.054H89.5863V35.354ZM89.5863 35.926V57.233C88.1563 49.225 84.5813 41.932 79.4333 35.926H89.5863ZM89.5863 94.556H79.4333C84.5813 88.55 88.1563 81.4 89.5863 73.392V94.556ZM89.5863 95.414V109.714H75.2863V98.846C76.5733 97.702 77.5743 96.701 78.7183 95.414H89.5863ZM15.0833 95.414V97.845L12.6523 95.414H15.0833ZM30.9563 35.926H38.3923C35.6753 36.498 33.2443 37.642 30.9563 38.929V35.926ZM15.0833 35.354H12.6523C13.5103 34.496 14.2253 33.638 15.0833 32.78V35.354ZM15.0833 35.926V94.556H11.9373C5.07334 86.691 0.926341 76.681 0.926341 65.384C0.926341 54.087 5.07334 43.791 11.9373 35.926H15.0833ZM90.8733 20.196H90.1583V0.604994H89.5863V20.196H75.2863V0.604994H74.4283V20.196H45.2563H30.9563V0.604994H30.0983V20.196H15.7983V0.604994H15.0833V20.196H4.21534V21.054H15.0833V31.779C13.7963 32.923 12.7953 34.067 11.6513 35.354H4.21534V35.926H10.9363C4.21534 43.791 0.0683413 54.23 0.0683413 65.384C0.0683413 76.538 4.21534 86.691 10.9363 94.556H5.78834V95.414H11.6513C12.7953 96.701 13.7963 97.702 15.0833 98.846V109.714H5.78834V110.286H15.0833V131.593H15.7983V110.286H30.0983V131.593H30.9563V110.286H45.2563H74.4283V131.593H75.2863V110.286H89.5863V131.593H90.1583V110.286H91.0163V109.714H90.1583V95.414H91.0163V94.556H90.1583V65.384V35.926H90.8733V35.354H90.1583V21.054H90.8733V20.196ZM66.5633 104.137C64.2753 105.424 61.7013 106.568 59.1273 107.426L74.4283 98.56C72.4263 100.276 70.4243 101.706 68.1363 103.136L66.5633 104.137ZM56.5533 108.141C55.5523 108.427 54.5513 108.713 53.5503 108.856L74.4283 96.701V97.702L56.5533 108.141ZM75.2863 97.416V96.272L76.8593 95.414H77.7173C77.2883 95.843 77.1453 96.129 76.7163 96.558L75.2863 97.416ZM78.1463 94.556L78.7183 94.27L78.4323 94.556H78.1463ZM51.6913 109.142C50.9763 109.285 50.1183 109.285 49.4033 109.428L73.8563 95.414H74.4283V95.986L51.6913 109.142ZM75.2863 95.557V95.414H75.5723L75.2863 95.557ZM76.8593 94.556H75.2863L81.2923 90.981C80.8633 91.553 80.2913 92.268 79.8623 92.84L76.8593 94.556ZM47.9733 109.571H45.9713L70.7103 95.414H72.5693L47.9733 109.571ZM74.4283 94.127L73.7133 94.556H71.9973L74.4283 93.126V94.127ZM82.1503 89.694L75.2863 93.841V92.697L83.1513 88.121C82.8653 88.693 82.5793 89.122 82.1503 89.694ZM44.6843 109.571H42.9683L67.5643 95.414H69.4233L44.6843 109.571ZM74.4283 92.411L70.7103 94.556H68.8513L74.4283 91.41V92.411ZM83.8663 86.977L75.2863 91.982V90.981L84.7243 85.404C84.4383 85.976 84.1523 86.548 83.8663 86.977ZM41.8243 109.571C41.2523 109.571 40.8233 109.428 40.2513 109.428L64.5613 95.414H66.2773L41.8243 109.571ZM74.4283 90.552L67.5643 94.556H65.7053L74.4283 89.551V90.552ZM85.1533 84.403L75.2863 90.266V89.122L85.8683 82.973C85.7253 83.402 85.4393 83.974 85.1533 84.403ZM39.2503 109.285C38.8213 109.285 38.2493 109.142 37.8203 108.999L61.4153 95.414H63.2743L39.2503 109.285ZM74.4283 88.836L64.4183 94.556H62.7023L74.4283 87.835V88.836ZM86.2973 81.972L75.2863 88.407V87.406L86.7263 80.685L86.2973 81.972ZM36.8193 109.714V109.571C36.9623 109.571 36.9623 109.714 37.1053 109.714H36.8193ZM35.5323 109.714H33.6733L34.5313 109.142C34.9603 109.285 35.5323 109.285 35.9613 109.428L35.5323 109.714ZM36.8193 108.856C36.3903 108.713 35.9613 108.713 35.5323 108.57L58.4123 95.414H60.1283L36.8193 108.856ZM74.4283 86.977L61.4153 94.556H59.5563L74.4283 85.976V86.977ZM87.1553 79.684L75.2863 86.691V85.547L87.5843 78.397L87.1553 79.684ZM32.3863 109.714H30.9563V109.428L32.5293 108.57C32.9583 108.713 33.2443 108.713 33.6733 108.856L32.3863 109.714ZM34.5313 108.427C34.1023 108.284 33.8163 108.141 33.3873 107.998L55.2663 95.414H57.1253L34.5313 108.427ZM74.4283 85.261L58.2693 94.556H56.5533L74.4283 84.26V85.261ZM87.8703 77.539L75.2863 84.832V83.831L88.1563 76.252C88.0133 76.681 88.0133 77.11 87.8703 77.539ZM31.6713 108.284L30.9563 108.713V107.998C31.2423 108.141 31.3853 108.141 31.6713 108.284ZM30.0983 109.142L29.2403 109.714H27.5243L30.0983 108.141V109.142ZM32.5293 107.855C32.1003 107.712 31.8143 107.569 31.3853 107.426L52.1203 95.414H53.9793L32.5293 107.855ZM74.4283 83.402L55.2663 94.556H53.4073L54.9803 93.698C58.6983 92.411 62.1303 90.552 64.9903 87.978L74.4283 82.401V83.402ZM88.2993 75.394L75.2863 83.116V81.972L88.5853 74.25C88.4423 74.679 88.4423 74.965 88.2993 75.394ZM74.4283 81.686L66.9923 86.119L68.7083 83.974L74.4283 80.685V81.686ZM88.7283 73.392L75.2863 81.257V80.256L89.0143 72.248C89.0143 72.677 88.7283 72.963 88.7283 73.392ZM29.6693 107.569L26.2373 109.714H24.3783L28.6683 107.14C29.0973 107.283 29.2403 107.426 29.6693 107.569ZM30.9563 106.997V105.853L49.1173 95.414H50.8333L30.9563 106.997ZM27.8103 106.854L23.0913 109.714H21.3753L26.8093 106.425C27.0953 106.568 27.5243 106.711 27.8103 106.854ZM30.9563 105.138V104.137L45.9713 95.414H47.8303L30.9563 105.138ZM28.6683 106.425C28.3823 106.282 27.8103 106.139 27.5243 105.996L30.0983 104.566V105.567L28.6683 106.425ZM29.3833 106.711L30.0983 106.282V106.997C29.8123 106.854 29.6693 106.854 29.3833 106.711ZM74.4283 79.827L69.7093 82.687C70.1383 82.115 70.5673 81.543 70.8533 80.971L74.4283 78.826V79.827ZM89.1573 71.39L75.2863 79.541V78.397L89.3003 70.246C89.3003 70.675 89.1573 70.961 89.1573 71.39ZM26.0943 106.139L20.0883 109.714H18.2293L25.0933 105.71C25.3793 105.853 25.8083 105.996 26.0943 106.139ZM30.9563 103.422V102.278L42.9683 95.414H44.6843L30.9563 103.422ZM26.8093 105.71C26.5233 105.567 26.0943 105.424 25.8083 105.281L30.0983 102.707V103.708L26.8093 105.71ZM74.4283 78.111L71.4253 79.827C71.7113 79.398 71.9973 78.969 72.2833 78.397L74.4283 77.11V78.111ZM89.3003 69.531L75.2863 77.682V76.681L89.4433 68.387C89.4433 68.816 89.3003 69.102 89.3003 69.531ZM24.3783 105.281L16.9423 109.714H15.7983V109.285L23.5203 104.852L24.3783 105.281ZM30.9563 101.563V100.562L39.8223 95.414H41.6813L30.9563 101.563ZM25.2363 104.852C24.9503 104.709 24.5213 104.566 24.2353 104.423L30.0983 100.991V101.992L25.2363 104.852ZM74.4283 76.252L72.7123 77.396C72.8553 76.967 73.1413 76.395 73.2843 75.966L74.4283 75.251V76.252ZM89.4433 67.672L75.2863 75.966V74.822L89.4433 66.528V67.672ZM22.8053 104.423L15.7983 108.427V107.426L21.9473 103.851C22.2333 103.994 22.5193 104.28 22.8053 104.423ZM30.9563 99.847V98.703L36.8193 95.414H38.5353L30.9563 99.847ZM23.5203 103.994L22.6623 103.565L30.0983 99.132V100.133L23.5203 103.994ZM74.4283 74.536L73.5703 75.108L73.9993 73.821L74.4283 73.535V74.536ZM89.4433 65.813L75.2863 74.107V73.106L89.4433 64.812C89.4433 64.955 89.5863 65.241 89.5863 65.384C89.5863 65.527 89.4433 65.67 89.4433 65.813ZM21.3753 103.565L15.7983 106.711V105.71L20.5173 102.993C20.8033 103.136 21.0893 103.422 21.3753 103.565ZM30.9563 97.988V96.987L33.6733 95.414H35.5323L30.9563 97.988ZM22.0903 103.136C21.8043 102.993 21.5183 102.707 21.2323 102.564L30.0983 97.416V98.417L22.0903 103.136ZM74.4283 72.677L74.2853 72.82C74.4283 72.534 74.2853 72.105 74.4283 71.819V72.677ZM89.4433 64.097L75.2863 72.391V71.247L89.4433 63.096V64.097ZM19.9453 102.564L15.7983 104.852V103.851L19.0873 101.992C19.3733 102.135 19.6593 102.421 19.9453 102.564ZM30.9563 96.272V95.414H32.3863L30.9563 96.272ZM20.5173 102.135C20.2313 101.992 20.0883 101.706 19.8023 101.563L30.0983 95.557V96.558L20.5173 102.135ZM89.4433 62.381L75.2863 70.532V69.531L89.3003 61.38C89.3003 61.666 89.4433 62.095 89.4433 62.381ZM30.9563 94.556V94.413V93.412V93.269V91.696C33.3873 92.983 35.9613 93.984 38.6783 94.556H30.9563ZM18.5153 101.563L15.7983 103.136V102.135L17.6573 100.991C17.9433 101.134 18.2293 101.42 18.5153 101.563ZM29.2403 95.414L19.2303 101.134C18.9443 100.991 18.6583 100.705 18.3723 100.562L27.5243 95.414H29.2403ZM89.3003 60.665L75.2863 68.816V67.672L89.1573 59.664C89.1573 59.95 89.3003 60.379 89.3003 60.665ZM89.0143 58.949L75.2863 66.957V65.956L88.8713 57.948C88.8713 58.234 89.0143 58.663 89.0143 58.949ZM17.2283 100.562L15.7983 101.277V100.276L16.3703 99.99C16.6563 100.133 16.9423 100.419 17.2283 100.562ZM30.0983 92.983L27.3813 94.556H25.6653L30.0983 91.982V92.983ZM26.2373 95.414L17.8003 100.133C17.5143 99.99 17.3713 99.704 17.0853 99.561L24.3783 95.414H26.2373ZM30.0983 93.841V94.556H28.6683L30.0983 93.841ZM88.7283 57.376L75.2863 65.241V64.097L88.5853 56.375C88.5853 56.661 88.7283 57.09 88.7283 57.376ZM30.9563 90.838V89.694V87.978V87.263V86.262V86.119V84.403V83.688V82.687V82.544V80.828V80.113V79.112V78.969V77.253V76.538V75.537V73.678V72.963V71.962V70.103V69.388V68.387V66.528V65.813V64.812V62.953V62.238V61.237V59.378V58.663V57.662V56.947V55.803V55.088V54.087V53.372V52.228V51.513V50.512V49.797V39.644C34.6743 37.499 38.8213 36.212 43.2543 35.926H47.4013C62.5593 36.927 74.4283 49.797 74.4283 65.241C74.4283 81.4 61.4153 94.556 45.2563 94.556C40.1083 94.556 35.2463 93.269 30.9563 90.838ZM30.0983 91.267L24.3783 94.556H22.5193L29.2403 90.695C29.5263 90.838 29.8123 91.124 30.0983 91.267ZM23.0913 95.414L16.5133 99.132C16.2273 98.989 16.0843 98.703 15.7983 98.56L21.3753 95.414H23.0913ZM88.4423 55.66L75.2863 63.382V62.381L88.2993 54.802C88.4423 55.088 88.4423 55.374 88.4423 55.66ZM28.6683 90.266L21.2323 94.556H19.5163L27.8103 89.837L28.6683 90.266ZM20.0883 95.414L15.7983 97.702V96.701L18.2293 95.414H20.0883ZM29.3833 89.98C29.0973 89.837 28.8113 89.551 28.5253 89.408L30.0983 88.407V89.408L29.3833 89.98ZM29.9553 90.266H30.0983V90.409L29.9553 90.266ZM88.1563 54.087L75.2863 61.666V60.522L87.8703 53.229C88.0133 53.515 88.0133 53.801 88.1563 54.087ZM27.2383 89.408L18.2293 94.556H16.3703L26.5233 88.693C26.8093 88.836 26.9523 89.265 27.2383 89.408ZM16.9423 95.414L15.7983 95.986V95.414H16.9423ZM27.9533 88.979C27.6673 88.836 27.5243 88.55 27.2383 88.407L30.0983 86.691V87.692L27.9533 88.979ZM87.7273 52.657L75.2863 59.807V58.806L87.4413 51.656C87.5843 51.942 87.5843 52.371 87.7273 52.657ZM25.9513 88.264L15.7983 94.127V93.126L25.2363 87.692C25.5223 87.835 25.6653 88.121 25.9513 88.264ZM26.6663 87.978C26.3803 87.835 26.2373 87.406 25.9513 87.263L30.0983 84.832V85.833L26.6663 87.978ZM74.2853 57.519L74.4283 57.376V58.377C74.4283 58.091 74.4283 57.805 74.2853 57.519ZM87.1553 51.084L75.2863 58.091V56.947L86.8693 50.226C87.0123 50.512 87.0123 50.798 87.1553 51.084ZM24.8073 87.263L15.7983 92.411V91.41L24.0923 86.548C24.3783 86.834 24.5213 87.12 24.8073 87.263ZM25.3793 86.834C25.0933 86.691 24.9503 86.548 24.6643 86.262L30.0983 83.116V84.117L25.3793 86.834ZM73.9993 56.947C73.8563 56.661 73.8563 56.375 73.7133 56.089L74.4283 55.66V56.661L73.9993 56.947ZM86.5833 49.654L75.2863 56.232V55.231L86.2973 48.796C86.4403 49.082 86.4403 49.368 86.5833 49.654ZM23.6633 86.119L15.7983 90.552V89.551L22.9483 85.404C23.0913 85.69 23.5203 85.833 23.6633 86.119ZM24.2353 85.69C23.9493 85.404 23.8063 85.404 23.6633 85.118L30.0983 81.257V82.258L24.2353 85.69ZM73.5703 55.374C73.4273 55.088 73.4273 54.802 73.2843 54.516L74.4283 53.801V54.802L73.5703 55.374ZM86.0113 48.224L75.2863 54.516V53.372L85.7253 47.366C85.8683 47.652 85.8683 47.938 86.0113 48.224ZM22.5193 84.975L15.7983 88.836V87.835L21.9473 84.26C22.0903 84.546 22.3763 84.689 22.5193 84.975ZM23.2343 84.546C23.0913 84.26 22.8053 84.117 22.6623 83.831L30.0983 79.541V80.542L23.2343 84.546ZM72.9983 53.944C72.8553 53.658 72.8553 53.372 72.7123 53.086L74.4283 52.085V53.086L72.9983 53.944ZM85.4393 46.794L75.2863 52.657V51.656L85.0103 45.936L85.4393 46.794ZM21.5183 83.688L15.7983 86.977V85.976L20.9463 82.973C21.0893 83.259 21.3753 83.402 21.5183 83.688ZM22.2333 83.402C22.0903 83.116 21.8043 82.973 21.6613 82.687L30.0983 77.682V78.683L22.2333 83.402ZM72.4263 52.514L71.9973 51.656L74.4283 50.226V51.227L72.4263 52.514ZM84.7243 45.364L75.2863 50.941V49.797L84.2953 44.506L84.7243 45.364ZM20.6603 82.544L15.7983 85.261V84.26L20.0883 81.686C20.2313 81.972 20.5173 82.258 20.6603 82.544ZM21.2323 82.115C21.0893 81.829 20.9463 81.686 20.8033 81.4L30.0983 75.966V76.967L21.2323 82.115ZM71.7113 51.084C71.5683 50.798 71.4253 50.655 71.2823 50.369L74.4283 48.51V49.511L71.7113 51.084ZM84.0093 43.934L75.2863 49.082V48.081L83.5803 43.219C83.7233 43.505 83.8663 43.648 84.0093 43.934ZM19.8023 81.257L15.7983 83.402V82.401L19.3733 80.399L19.8023 81.257ZM20.3743 80.828C20.2313 80.542 20.0883 80.399 19.9453 80.113L30.0983 74.107V75.108L20.3743 80.828ZM70.9963 49.797C70.8533 49.511 70.5673 49.225 70.4243 48.939L74.4283 46.651V47.652L70.9963 49.797ZM83.2943 42.647L75.2863 47.366V46.222L82.8653 41.932C83.0083 42.218 83.1513 42.361 83.2943 42.647ZM18.9443 79.827L15.7983 81.686V80.685L18.5153 79.112C18.6583 79.398 18.8013 79.541 18.9443 79.827ZM19.6593 79.541L19.2303 78.683L30.0983 72.391V73.392L19.6593 79.541ZM70.1383 48.51C69.9953 48.224 69.7093 47.938 69.5663 47.652L74.4283 44.935V45.936L70.1383 48.51ZM82.4363 41.36L75.2863 45.507V44.506L82.0073 40.502L82.4363 41.36ZM18.2293 78.54L15.7983 79.827V78.826L17.9433 77.682C18.0863 77.968 18.0863 78.254 18.2293 78.54ZM18.9443 78.111L18.5153 77.253L30.0983 70.532V71.533L18.9443 78.111ZM69.2803 47.223C69.1373 46.937 68.8513 46.794 68.7083 46.508L74.4283 43.076V44.077L69.2803 47.223ZM81.5783 40.073L75.2863 43.791V42.647L81.0063 39.358C81.1493 39.644 81.4353 39.787 81.5783 40.073ZM17.6573 77.11L15.7983 78.111V77.11L17.2283 76.252L17.6573 77.11ZM18.2293 76.681C18.0863 76.395 18.0863 76.109 17.9433 75.823L30.0983 68.816V69.817L18.2293 76.681ZM68.2793 45.936C68.1363 45.65 67.8503 45.507 67.7073 45.221L74.4283 41.36V42.361L68.2793 45.936ZM80.7203 38.786L75.2863 41.932V40.931L80.1483 38.071C80.2913 38.357 80.5773 38.5 80.7203 38.786ZM17.0853 75.68L15.7983 76.252V75.251L16.7993 74.822C16.9423 75.108 16.9423 75.394 17.0853 75.68ZM17.6573 75.251C17.5143 74.965 17.5143 74.679 17.3713 74.393L30.0983 66.957V67.958L17.6573 75.251ZM67.2783 44.792C67.1353 44.506 66.8493 44.363 66.5633 44.077L74.4283 39.501V40.502L67.2783 44.792ZM79.7193 37.499L75.2863 40.216V39.072L79.1473 36.784C79.2903 37.07 79.5763 37.213 79.7193 37.499ZM16.5133 74.107L15.7983 74.536V73.535L16.2273 73.249C16.3703 73.535 16.3703 73.821 16.5133 74.107ZM17.2283 73.821C17.0853 73.535 17.0853 73.106 16.9423 72.82L30.0983 65.241V66.242L17.2283 73.821ZM66.1343 43.648C65.8483 43.362 65.7053 43.076 65.4193 42.933L74.4283 37.785V38.786L66.1343 43.648ZM78.7183 36.355L75.2863 38.357V37.356L77.4313 35.926H78.4323C78.5753 36.069 78.5753 36.212 78.7183 36.355ZM16.0843 72.534L15.7983 72.677V71.676H15.9413C15.9413 71.962 15.9413 72.248 16.0843 72.534ZM16.7993 72.248C16.6563 71.962 16.5133 71.533 16.5133 71.247L30.0983 63.382V64.383L16.7993 72.248ZM64.8473 42.504C64.5613 42.361 64.4183 42.075 64.1323 41.932L74.4283 35.926V36.927L64.8473 42.504ZM76.1443 35.926L75.2863 36.641V35.926H76.1443ZM77.4313 35.354H75.7153L77.0023 34.496C77.2883 34.782 77.5743 34.925 77.7173 35.211L77.4313 35.354ZM16.3703 70.675C16.3703 70.389 16.2273 69.96 16.2273 69.674L30.0983 61.666V62.667L16.3703 70.675ZM74.4283 35.354H72.5693L74.4283 34.21V35.211V35.354ZM73.1413 35.926L63.5603 41.503C63.2743 41.36 63.1313 41.074 62.8453 40.931L71.2823 35.926H73.1413ZM76.5733 34.067L75.2863 34.782V33.781L75.8583 33.352L76.5733 34.067ZM16.2273 68.959C16.2273 68.673 16.0843 68.244 16.0843 67.958L30.0983 59.807V60.808L16.2273 68.959ZM71.2823 35.354H69.4233L74.4283 32.351V33.352L71.2823 35.354ZM69.9953 35.926L62.2733 40.502C61.9873 40.359 61.7013 40.073 61.4153 39.93L68.2793 35.926H69.9953ZM75.4293 32.923L75.2863 33.066V32.78L75.4293 32.923ZM15.9413 67.243V66.242L30.0983 58.091V59.092L15.9413 67.243ZM68.1363 35.354H66.4203L73.4273 31.207C73.7133 31.35 73.8563 31.636 74.1423 31.779L68.1363 35.354ZM66.9923 35.926L60.8433 39.501L59.9853 39.072L65.1333 35.926H66.9923ZM15.9413 65.527V65.241V64.526L30.0983 56.232V57.233L15.9413 65.527ZM65.1333 35.354H63.2743L72.1403 30.206C72.4263 30.349 72.7123 30.635 72.9983 30.778L65.1333 35.354ZM63.8463 35.926L59.2703 38.643C58.9843 38.5 58.5553 38.357 58.2693 38.214C59.5563 37.499 60.8433 36.641 62.1303 35.926H63.8463ZM15.9413 63.668C15.9413 63.239 16.0843 63.096 16.0843 62.667L30.0983 54.516V55.517L15.9413 63.668ZM61.9873 35.354H60.2713L70.8533 29.205C71.1393 29.348 71.2823 29.634 71.5683 29.777L61.9873 35.354ZM60.8433 35.926L57.5543 37.785C57.2683 37.642 56.8393 37.499 56.5533 37.356C57.4113 36.927 58.1263 36.355 58.9843 35.926H60.8433ZM16.0843 61.809C16.0843 61.38 16.2273 61.094 16.2273 60.665L30.0983 52.657V53.658L16.0843 61.809ZM58.9843 35.354H57.1253L69.4233 28.204C69.7093 28.347 69.9953 28.633 70.2813 28.776L58.9843 35.354ZM57.6973 35.926C57.1253 36.355 56.4103 36.641 55.8383 37.07C55.4093 36.927 55.1233 36.784 54.6943 36.641L55.8383 35.926H57.6973ZM16.3703 59.95C16.5133 59.521 16.5133 59.092 16.6563 58.663L30.0983 50.941V51.942L16.3703 59.95ZM55.8383 35.354H53.9793L67.8503 27.203C68.1363 27.346 68.5653 27.632 68.8513 27.775L55.8383 35.354ZM54.5513 35.926L53.8363 36.498L52.5493 36.069L52.8353 35.926H54.5513ZM15.7983 58.377V57.376L16.3703 57.09C16.2273 57.519 16.2273 57.948 16.0843 58.377H15.7983ZM16.9423 57.805C17.0853 57.376 17.0853 56.947 17.2283 56.518L30.0983 49.082V50.083L16.9423 57.805ZM52.6923 35.354H50.9763L66.4203 26.345C66.7063 26.488 66.9923 26.774 67.2783 26.917L52.6923 35.354ZM15.7983 56.661V55.66L17.0853 54.945L16.6563 56.232L15.7983 56.661ZM17.5143 55.66C17.6573 55.231 17.9433 54.802 18.0863 54.373L30.0983 47.366V48.367L17.5143 55.66ZM49.6893 35.354H47.8303L64.7043 25.487C64.9903 25.63 65.4193 25.916 65.7053 26.059L49.6893 35.354ZM15.7983 54.802V53.801L18.0863 52.514C17.8003 52.943 17.5143 53.515 17.3713 53.944L15.7983 54.802ZM18.5153 53.372C18.8013 52.943 18.9443 52.371 19.2303 51.942L30.0983 45.507V46.508L18.5153 53.372ZM46.6863 35.211H45.2563H44.9703L62.9883 24.772C63.2743 24.915 63.7033 25.058 63.9893 25.201L46.6863 35.211ZM15.7983 53.086V52.085L19.3733 49.94C19.0873 50.512 18.8013 50.941 18.5153 51.513L15.7983 53.086ZM19.8023 50.798C20.0883 50.226 20.3743 49.797 20.6603 49.225L30.0983 43.791V44.792L19.8023 50.798ZM43.5403 35.211C43.3973 35.211 43.3973 35.354 43.2543 35.354H41.6813L61.2723 23.914C61.5583 24.057 61.9873 24.2 62.2733 24.343L43.5403 35.211ZM15.7983 51.227V50.226L21.3753 47.08L20.0883 48.796L15.7983 51.227ZM21.5183 47.938C21.9473 47.223 22.5193 46.651 23.0913 46.079L30.0983 41.932V42.933L21.5183 47.938ZM40.3943 35.354H38.6783L59.2703 23.342C59.6993 23.485 59.9853 23.485 60.4143 23.628L40.3943 35.354ZM15.7983 49.511V48.51L24.8073 43.219C23.9493 43.934 23.2343 44.792 22.5193 45.65L15.7983 49.511ZM24.6643 44.363C26.0943 42.933 27.6673 41.932 29.2403 40.788L30.0983 40.216V41.217L24.6643 44.363ZM37.3913 35.354H35.5323L57.2683 22.627L58.5553 23.056L37.3913 35.354ZM15.7983 47.652V46.651L30.0983 38.357V39.358L27.9533 40.645L15.7983 47.652ZM34.2453 35.354H32.3863L55.1233 22.055L56.4103 22.484L34.2453 35.354ZM15.7983 45.936V44.935L30.0983 36.641V37.642L15.7983 45.936ZM15.7983 44.077V43.076L28.0963 35.926H29.9553L15.7983 44.077ZM31.0993 35.354H30.9563V34.353L52.8353 21.626C53.2643 21.769 53.8363 21.769 54.2653 21.912L31.0993 35.354ZM29.3833 35.354L30.0983 34.782V35.354H29.3833ZM15.7983 42.361V41.36L25.0933 35.926H26.8093L15.7983 42.361ZM28.0963 35.354H26.2373L30.0983 33.066V34.067L28.0963 35.354ZM51.8343 21.483L30.9563 33.638V32.637L50.4043 21.34C50.8333 21.34 51.4053 21.34 51.8343 21.483ZM15.7983 40.502V39.501L21.9473 35.926H23.8063L15.7983 40.502ZM24.9503 35.354H23.2343L30.0983 31.207V32.208L24.9503 35.354ZM49.4033 21.197L30.9563 31.922V30.778L47.6873 21.054C48.2593 21.054 48.8313 21.197 49.4033 21.197ZM15.7983 38.786V37.785L18.8013 35.926H20.6603L15.7983 38.786ZM21.9473 35.354H20.0883L30.0983 29.491V30.492L21.9473 35.354ZM46.5433 21.054L30.9563 30.063V29.062L44.8273 21.054H45.2563H46.5433ZM15.7983 36.927V35.926H17.5143L15.7983 36.927ZM18.8013 35.354H16.9423L30.0983 27.632V28.633L18.8013 35.354ZM43.3973 21.054L30.9563 28.347V27.203L41.3953 21.197C42.1103 21.197 42.6823 21.054 43.3973 21.054ZM30.0983 26.917L15.7983 35.211V34.21L30.0983 25.916V26.917ZM39.8223 21.34L30.9563 26.488V25.487L37.3913 21.626C38.2493 21.483 38.9643 21.483 39.8223 21.34ZM30.0983 25.058L15.7983 33.352V32.351L30.0983 24.057V25.058ZM35.5323 22.055L30.9563 24.772V23.628L32.1003 22.913L35.5323 22.055ZM34.5313 21.483L35.5323 21.054H37.1053L34.5313 21.483ZM28.9543 24.057L17.6573 30.635C21.0893 27.918 24.8073 25.63 28.9543 24.057ZM32.2433 22.198L30.9563 22.627V21.912L32.3863 21.054H34.2453L32.2433 22.198ZM15.7983 30.635L18.3723 29.205C17.5143 29.777 16.6563 30.349 15.7983 31.064V30.635ZM27.2383 23.914L30.0983 22.341V22.77C29.0973 23.056 28.2393 23.485 27.2383 23.914ZM15.7983 29.777V28.776L29.3833 21.054H30.0983V21.483L15.7983 29.777ZM30.9563 21.197V21.054H31.0993L30.9563 21.197ZM15.7983 28.061V27.06L26.2373 21.054H28.0963L15.7983 28.061ZM15.7983 26.202V25.201L23.2343 21.054H24.9503L15.7983 26.202ZM15.7983 24.486V23.485L20.0883 21.054H21.9473L15.7983 24.486ZM15.7983 22.627V21.626L16.9423 21.054H18.8013L15.7983 22.627ZM181.22 109.714L193.375 102.707V103.565L182.936 109.714H181.22ZM205.959 95.414H207.532L194.09 103.279V102.278L205.959 95.414ZM178.074 109.714L193.375 100.848V101.849L179.79 109.714H178.074ZM202.813 95.414H204.529L194.09 101.42V100.419L202.813 95.414ZM175.071 109.714L193.375 99.132V99.99L176.644 109.714H175.071ZM199.81 95.414H201.383L194.09 99.561V98.703L199.81 95.414ZM171.925 109.714L193.375 97.273V98.274L173.641 109.714H171.925ZM196.664 95.414H198.38L194.09 97.845V96.844L196.664 95.414ZM195.234 95.414L194.09 95.986V95.414H195.234ZM168.922 109.714L193.375 95.557V96.415L170.495 109.714H168.922ZM165.776 109.714L190.515 95.414H192.231L167.492 109.714H165.776ZM162.63 109.714L187.369 95.414H189.085L164.346 109.714H162.63ZM159.627 109.714L184.366 95.414H185.939L161.2 109.714H159.627ZM181.22 95.414H182.936L158.197 109.714H156.91V109.428L181.22 95.414ZM178.217 95.414H179.79L156.91 108.57V107.712L178.217 95.414ZM156.195 108.141V108.999L155.051 109.714H153.478L156.195 108.141ZM175.071 95.414H176.787L156.91 106.854V105.853L175.071 95.414ZM156.195 106.282V107.283L152.048 109.714H150.332L156.195 106.282ZM171.925 95.414H173.641L156.91 105.138V104.137L171.925 95.414ZM156.195 104.423V105.424L148.902 109.714H147.186L156.195 104.423ZM168.922 95.414H170.495L156.91 103.279V102.278L168.922 95.414ZM156.195 102.707V103.708L145.899 109.714H144.183L156.195 102.707ZM165.776 95.414H167.492L156.91 101.563V100.562L165.776 95.414ZM156.195 100.991V101.992L142.753 109.714H142.038V109.285L156.195 100.991ZM162.773 95.414H164.346L156.91 99.704V98.846L162.773 95.414ZM156.195 99.275V100.133L142.038 108.427V107.426L156.195 99.275ZM159.627 95.414H161.343L156.91 97.988V96.987L159.627 95.414ZM156.195 97.416V98.417L142.038 106.568V105.71L156.195 97.416ZM158.197 95.414L156.91 96.129V95.414H158.197ZM156.195 95.7V96.558L142.038 104.852V103.851L156.195 95.7ZM155.051 94.556L156.195 93.841V94.556H155.051ZM153.621 95.414H155.337L142.038 102.993V102.135L153.621 95.414ZM152.048 94.556L156.195 92.125V92.983L153.621 94.556H152.048ZM150.618 95.414H152.191L142.038 101.277V100.276L150.618 95.414ZM148.902 94.556L156.195 90.266V91.267L150.618 94.556H148.902ZM147.472 95.414H149.045L142.038 99.418V98.56L147.472 95.414ZM145.756 94.556L156.195 88.55V89.408L147.472 94.556H145.756ZM144.326 95.414H146.042L142.038 97.702V96.701L144.326 95.414ZM142.753 95.414L142.038 95.843V95.414H142.753ZM142.753 94.556L156.195 86.691V87.692L144.326 94.556H142.753ZM142.038 93.126L156.195 84.975V85.833L142.038 94.127V93.126ZM142.038 91.41L156.195 83.116V84.117L142.038 92.268V91.41ZM142.038 89.551L156.195 81.4V82.258L142.038 90.552V89.551ZM142.038 87.835L156.195 79.541V80.542L142.038 88.693V87.835ZM142.038 85.976L156.195 77.825V78.683L142.038 86.977V85.976ZM142.038 84.26L156.195 75.966V76.967L142.038 85.118V84.26ZM142.038 82.401L156.195 74.25V75.108L142.038 83.402V82.401ZM192.946 72.534L193.375 72.248V72.534H192.946ZM189.8 72.534L193.375 70.532V71.533L191.516 72.534H189.8ZM186.797 72.534L193.375 68.673V69.674L188.37 72.534H186.797ZM183.651 72.534L193.375 66.957V67.958L185.367 72.534H183.651ZM180.648 72.534L193.375 65.098V66.099L182.221 72.534H180.648ZM177.502 72.534L193.375 63.382V64.383L179.218 72.534H177.502ZM174.356 72.534L193.375 61.523V62.524L176.072 72.534H174.356ZM171.353 72.534L193.375 59.807V60.808L172.926 72.534H171.353ZM168.207 72.534L192.946 58.234H193.375V58.949L169.923 72.534H168.207ZM165.204 72.534L189.943 58.234H191.516L166.777 72.534H165.204ZM160.628 72.534H159.055L183.651 58.234H185.367L160.628 72.534ZM162.058 72.534L186.797 58.234H188.513L163.774 72.534H162.058ZM156.91 73.106H193.375V94.556H156.91V73.106ZM156.052 72.534L156.195 72.391V72.534H156.052ZM156.91 72.105L180.648 58.234H182.221L157.625 72.534H156.91V72.105ZM155.051 73.106H156.195V73.392L142.038 81.543V80.685L155.051 73.106ZM152.906 72.534L156.195 70.532V71.533L154.622 72.534H152.906ZM156.91 70.246L177.502 58.234H179.218L156.91 71.247V70.246ZM151.905 73.106H153.621L142.038 79.827V78.826L151.905 73.106ZM149.903 72.534L156.195 68.816V69.817L151.476 72.534H149.903ZM156.91 68.387L174.499 58.234H176.072L156.91 69.388V68.387ZM148.902 73.106H150.475L142.038 77.968V77.11L148.902 73.106ZM146.757 72.534L156.195 66.957V67.958L148.473 72.534H146.757ZM156.91 66.671L171.353 58.234H173.069L156.91 67.672V66.671ZM145.756 73.106H147.472L142.038 76.252V75.251L145.756 73.106ZM143.754 72.534L156.195 65.241V66.242L145.327 72.534H143.754ZM156.91 64.812L168.35 58.234H169.923L156.91 65.813V64.812ZM142.753 73.106H144.326L142.038 74.393V73.535L142.753 73.106ZM142.038 71.676L156.195 63.382V64.383L142.324 72.534H142.038V71.676ZM156.91 63.096L165.204 58.234H166.92L156.91 64.097V63.096ZM142.038 69.96L156.195 61.666V62.667L142.038 70.818V69.96ZM156.91 61.237L162.058 58.234H163.774L156.91 62.238V61.237ZM142.038 68.101L156.195 59.807V60.808L142.038 69.102V68.101ZM156.91 59.521L159.055 58.234H160.628L156.91 60.379V59.521ZM156.91 58.663V58.234H157.625L156.91 58.663ZM142.038 66.385L155.909 58.234H156.195V59.092L142.038 67.243V66.385ZM154.622 57.376L156.195 56.375V57.233L156.052 57.376H154.622ZM142.038 64.526L153.049 58.234H154.622L142.038 65.527V64.526ZM151.333 57.376L156.195 54.516V55.517L153.049 57.376H151.333ZM142.038 62.81L149.903 58.234H151.619L142.038 63.668V62.81ZM148.33 57.376L156.195 52.8V53.658L149.903 57.376H148.33ZM142.038 60.951L146.757 58.234H148.473L142.038 61.952V60.951ZM145.327 57.376L156.195 50.941V51.942L146.757 57.376H145.327ZM142.038 59.235L143.754 58.234H145.327L142.038 60.093V59.235ZM142.038 58.377V58.234H142.324L142.038 58.377ZM142.038 57.376L156.195 49.225V50.083L143.754 57.376H142.038ZM142.038 55.66L156.195 47.366V48.367L142.038 56.518V55.66ZM142.038 53.801L156.195 45.65V46.508L142.038 54.802V53.801ZM142.038 52.085L156.195 43.791V44.792L142.038 52.943V52.085ZM142.038 50.226L156.195 42.075V42.933L142.038 51.227V50.226ZM142.038 48.51L156.195 40.216V41.217L142.038 49.368V48.51ZM142.038 46.651L156.195 38.5V39.358L142.038 47.652V46.651ZM142.038 44.935L156.195 36.641V37.642L142.038 45.793V44.935ZM208.533 34.925V35.354H207.818L208.533 34.925ZM208.533 33.066V34.067L206.388 35.354H204.672L208.533 33.066ZM208.533 31.35V32.208L203.242 35.354H201.526L208.533 31.35ZM208.533 29.491V30.492L200.096 35.354H198.523L208.533 29.491ZM208.533 27.775V28.633L197.093 35.354H195.377L208.533 27.775ZM192.374 35.354L193.375 34.782V35.354H192.374ZM208.533 25.916V26.917L194.09 35.211V34.353L208.533 25.916ZM189.228 35.354L193.375 32.923V33.924L190.944 35.354H189.228ZM208.533 24.2V25.058L194.09 33.495V32.494L208.533 24.2ZM186.082 35.354L193.375 31.207V32.065L187.798 35.354H186.082ZM208.533 22.341V23.342L194.09 31.779V30.778L208.533 22.341ZM183.079 35.354L193.375 29.348V30.349L184.652 35.354H183.079ZM207.818 21.054H208.533V21.483L194.09 29.92V29.062L207.818 21.054ZM179.933 35.354L193.375 27.632V28.49L181.649 35.354H179.933ZM204.672 21.054H206.388L194.09 28.204V27.203L204.672 21.054ZM176.93 35.354L193.375 25.773V26.774L178.503 35.354H176.93ZM201.669 21.054H203.242L194.09 26.345V25.344L201.669 21.054ZM173.784 35.354L193.375 24.057V25.058L175.5 35.354H173.784ZM198.523 21.054H200.239L194.09 24.629V23.628L198.523 21.054ZM170.781 35.354L193.375 22.198V23.199L172.354 35.354H170.781ZM195.377 21.054H197.093L194.09 22.77V21.769L195.377 21.054ZM167.635 35.354L192.374 21.054H193.375V21.483L169.351 35.354H167.635ZM164.489 35.354L189.228 21.054H190.944L166.205 35.354H164.489ZM160.056 35.354H158.34L183.079 21.054H184.795L160.056 35.354ZM156.91 35.926H193.375V57.376H156.91V35.926ZM161.486 35.354L186.225 21.054H187.798L163.059 35.354H161.486ZM142.038 43.076L154.336 35.926H156.052L142.038 44.077V43.076ZM155.337 35.354L156.195 34.925V35.354H155.337ZM180.076 21.054H181.649L157.053 35.354H156.91V34.496L180.076 21.054ZM142.038 41.36L151.333 35.926H152.906L142.038 42.218V41.36ZM152.334 35.354L156.195 33.066V34.067L153.907 35.354H152.334ZM176.93 21.054H178.646L156.91 33.638V32.637L176.93 21.054ZM142.038 39.501L148.187 35.926H149.903L142.038 40.502V39.501ZM149.188 35.354L156.195 31.207V32.208L150.904 35.354H149.188ZM173.784 21.054H175.5L156.91 31.922V30.921L173.784 21.054ZM142.038 37.785L145.184 35.926H146.757L142.038 38.643V37.785ZM146.185 35.354L156.195 29.491V30.492L147.758 35.354H146.185ZM170.781 21.054H172.354L156.91 30.063V29.062L170.781 21.054ZM142.038 35.926H143.754L142.038 36.927V35.926ZM143.039 35.354L156.195 27.632V28.633L144.755 35.354H143.039ZM167.635 21.054H169.351L156.91 28.347V27.346L167.635 21.054ZM156.195 25.916V26.917L142.038 35.068V34.21L156.195 25.916ZM164.632 21.054H166.205L156.91 26.488V25.487L164.632 21.054ZM156.195 24.057V25.058L142.038 33.352V32.351L156.195 24.057ZM161.486 21.054H163.202L156.91 24.629V23.628L161.486 21.054ZM156.195 22.341V23.342L142.038 31.493V30.635L156.195 22.341ZM158.34 21.054H160.056L156.91 22.913V21.912L158.34 21.054ZM155.337 21.054H156.195V21.483L142.038 29.777V28.776L155.337 21.054ZM152.191 21.054H153.907L142.038 27.918V27.06L152.191 21.054ZM149.188 21.054H150.761L142.038 26.202V25.201L149.188 21.054ZM146.042 21.054H147.758L142.038 24.343V23.485L146.042 21.054ZM143.039 21.054H144.612L142.038 22.627V21.626L143.039 21.054ZM205.959 109.714L208.533 108.141V109.142L207.532 109.714H205.959ZM202.813 109.714L208.533 106.425V107.283L204.529 109.714H202.813ZM199.667 109.714L208.533 104.566V105.567L201.383 109.714H199.667ZM196.664 109.714L208.533 102.85V103.708L198.237 109.714H196.664ZM194.09 109.428L208.533 100.991V101.992L195.234 109.714H194.09V109.428ZM190.515 109.714L193.375 107.998V108.999L192.088 109.714H190.515ZM194.09 107.712L208.533 99.275V100.133L194.09 108.57V107.712ZM185.939 109.714H184.366L193.375 104.566V105.424L185.939 109.714ZM194.09 104.995V104.137L208.533 95.7V96.558L194.09 104.995ZM187.369 109.714L193.375 106.282V107.283L189.085 109.714H187.369ZM194.09 105.853L208.533 97.416V98.417L194.09 106.854V105.853ZM141.323 35.354H130.312V35.926H141.323V57.376H130.312V58.234H141.323V72.534H131.885V73.106H141.323V94.556H130.455V95.414H141.323V109.714H130.455V110.286H141.323V131.593H142.038V110.286H156.195V131.593H156.91V110.286H193.375V131.593H194.09V110.286H208.533V131.593H209.105V110.286H219.973V109.714H209.105V95.414H219.973V94.556H209.105V35.926H216.97V35.354H209.105V21.054H216.97V20.196H209.105V0.747992H208.533V20.196H194.09V0.747992H193.375V20.196H156.91V0.747992H156.195V20.196H142.038V0.747992H141.323V20.196H130.312V21.054H141.323V35.354ZM194.09 58.234H203.099V57.376H194.09V35.926H208.533V94.556H194.09V73.106H203.242V72.534H194.09V58.234ZM312.054 110.143C314.771 109.857 317.202 109.142 319.633 108.141V109.714L312.054 110.143ZM305.047 73.249V73.106H305.333C305.19 73.106 305.19 73.106 305.047 73.249ZM291.319 35.926H297.897V42.647C296.753 39.644 294.322 37.07 291.319 35.926ZM285.885 35.926H288.316C293.607 36.498 297.897 41.217 297.897 46.651C297.897 52.514 292.892 57.376 287.029 57.376C281.166 57.376 276.447 52.514 276.447 46.651C276.447 41.217 280.594 36.498 285.885 35.926ZM305.762 94.556H303.903H303.76H302.044H300.757H298.898H298.469V87.835C299.756 91.124 302.473 93.555 305.762 94.556ZM309.051 73.249C314.485 73.249 319.061 77.253 319.633 82.544V85.118C319.061 90.409 314.485 94.413 309.051 94.413C303.188 94.413 298.469 89.694 298.469 83.831C298.469 77.968 303.188 73.249 309.051 73.249ZM287.029 73.106H287.172H297.611V73.249H297.897V83.831V94.556H297.611H295.895H294.608H292.749H291.462H289.603H288.316H286.6H285.599C284.169 91.267 283.311 87.835 283.311 83.974C283.311 80.113 284.169 76.395 285.599 73.106H287.029ZM310.481 35.926C311.911 39.215 312.769 42.933 312.769 46.794C312.769 50.655 311.911 54.087 310.481 57.376H309.051H300.042H298.469V46.651V35.926H310.481ZM319.633 58.234V59.664C318.203 59.092 316.63 58.663 315.057 58.234H319.633ZM319.633 35.926V57.376H311.339C312.769 54.087 313.627 50.655 313.627 46.794C313.627 42.933 312.769 39.215 311.339 35.926H319.633ZM334.648 73.106V77.539C334.219 76.109 333.79 74.536 333.218 73.106H334.648ZM334.648 94.556H333.218C333.79 93.126 334.219 91.696 334.648 90.266V94.556ZM334.648 95.414V109.714H320.348V107.855C325.782 105.281 330.215 100.848 332.789 95.414H334.648ZM275.589 73.106V94.556H261.289V73.106H275.589ZM276.447 73.106H284.741C283.311 76.395 282.453 80.113 282.453 83.974C282.453 87.835 283.311 91.267 284.741 94.556H276.447V73.106ZM276.447 72.534V70.961C277.877 71.676 279.45 72.105 281.023 72.534H276.447ZM276.447 21.054H281.023C279.45 21.483 277.877 21.769 276.447 22.484V21.054ZM261.289 57.376V52.8C261.718 54.373 262.147 55.946 262.862 57.376H261.289ZM261.289 58.234H263.291C265.865 63.668 270.155 67.958 275.589 70.532V72.534H261.289V58.234ZM261.289 35.354V21.054H275.589V22.913C270.155 25.487 265.865 29.92 263.291 35.354H261.289ZM261.289 35.926H262.862C262.147 37.356 261.718 39.072 261.289 40.645V35.926ZM329.643 58.234V57.376H320.348V35.926H334.648V72.534H332.789C330.215 67.1 325.782 62.524 320.348 59.95V58.234H329.643ZM249.706 57.376V58.234H260.717V72.534H251.279V73.106H260.717V94.556H249.849V95.414H260.717V109.714H249.849V110.286H260.717V131.593H261.289V110.286H275.589V131.593H276.447V110.286H297.897V131.593H298.469V110.286H309.051H319.633V131.593H320.348V110.286H334.648V131.593H335.363V110.286H344.515V109.714H335.363V95.414H344.515V94.556H335.363V85.833V83.974V81.972V35.926H343.514V35.354H335.363V21.054H343.514V20.196H335.363V0.747992H334.648V20.196H320.348V0.747992H319.633V20.196H298.469V0.747992H297.897V20.196H287.029H276.447V0.747992H275.589V20.196H261.289V0.747992H260.717V20.196H249.706V21.054H260.717V35.354H249.706V35.926H260.717V46.794V57.376H249.706ZM317.345 108.284C316.201 108.713 315.057 108.856 313.913 109.142L319.633 105.853V106.854L317.345 108.284ZM320.348 106.425V105.424L328.356 100.848C327.641 101.706 326.783 102.564 325.925 103.279L320.348 106.425ZM312.197 109.428C311.482 109.571 310.767 109.571 310.052 109.571L319.633 104.137V105.138L312.197 109.428ZM320.348 104.709V103.708L330.787 97.702L329.5 99.418L320.348 104.709ZM308.765 109.571H307.049L319.633 102.278V103.279L308.765 109.571ZM320.348 102.85V101.849L331.645 95.414H332.074C331.931 95.843 331.645 96.129 331.359 96.558L320.348 102.85ZM305.905 109.428C305.476 109.428 304.904 109.428 304.475 109.285L319.633 100.562V101.563L305.905 109.428ZM320.348 101.134V100.133L328.499 95.414H330.358L320.348 101.134ZM331.645 94.556H329.786L333.218 92.697C333.075 93.126 332.789 93.555 332.646 93.984L331.645 94.556ZM303.617 108.999C303.188 108.856 302.759 108.856 302.33 108.713L319.633 98.703V99.704L303.617 108.999ZM320.348 99.275V98.274L325.496 95.414H327.212L320.348 99.275ZM328.499 94.556H326.64L333.933 90.409L333.504 91.696L328.499 94.556ZM302.616 109.571V109.714H300.757L301.472 109.285C301.901 109.428 302.187 109.428 302.616 109.571ZM301.472 108.57C301.043 108.427 300.757 108.284 300.328 108.141L319.633 96.987V97.988L301.472 108.57ZM320.348 97.559V96.558L322.35 95.414H324.209L320.348 97.559ZM325.353 94.556H323.637L334.362 88.407C334.362 88.836 334.219 89.122 334.076 89.551L325.353 94.556ZM300.614 108.999L299.47 109.714H298.469V109.142L299.47 108.57C299.899 108.713 300.185 108.856 300.614 108.999ZM297.611 109.714L297.897 109.571V109.714H297.611ZM296.324 109.714H294.608L297.754 107.855H297.897V108.856L296.324 109.714ZM299.47 107.855C299.184 107.712 298.755 107.569 298.469 107.426L319.347 95.414H319.633V96.129L299.47 107.855ZM320.348 95.7V95.414H321.063L320.348 95.7ZM322.35 94.556H320.491L334.648 86.548C334.648 86.977 334.505 87.12 334.505 87.549L322.35 94.556ZM298.755 108.284L298.469 108.427V108.284H298.755ZM293.321 109.714H291.462L296.038 106.997C296.324 107.14 296.753 107.426 297.039 107.569L293.321 109.714ZM318.06 95.414L298.469 106.568V105.567L316.201 95.414H318.06ZM319.633 94.413L319.204 94.556H317.488L319.633 93.412V94.413ZM334.648 85.69L320.348 93.984V92.983L334.648 84.689V85.69ZM297.754 107.14C297.468 106.997 297.039 106.711 296.753 106.568L297.897 105.996V106.997L297.754 107.14ZM290.175 109.714H288.459L294.608 106.139L295.466 106.568L290.175 109.714ZM314.914 95.414L298.469 104.852V103.851L313.055 95.414H314.914ZM319.633 92.554L316.201 94.556H314.342L319.633 91.553V92.554ZM334.648 83.974L320.348 92.125V91.124L334.648 82.83V83.974ZM296.181 106.282C295.895 106.139 295.609 105.853 295.323 105.71L297.897 104.137V105.281L296.181 106.282ZM287.172 109.714H285.313L293.178 105.138C293.464 105.281 293.75 105.567 294.036 105.71L287.172 109.714ZM311.768 95.414L298.469 102.993V101.992L310.052 95.414H311.768ZM319.633 90.838L313.055 94.556H312.483C314.771 93.841 316.63 92.554 318.06 90.695L319.633 89.837V90.838ZM334.648 82.115L320.348 90.409V89.408L334.505 81.114C334.505 81.4 334.648 81.686 334.648 81.972V82.115ZM294.608 105.281C294.322 105.138 294.179 104.852 293.893 104.709L297.897 102.421V103.422L294.608 105.281ZM319.633 88.979L318.918 89.408C319.204 88.979 319.49 88.55 319.633 87.978V88.979ZM334.505 80.399L320.348 88.55V87.549L334.362 79.541C334.362 79.827 334.505 80.113 334.505 80.399ZM284.026 109.714H282.31L291.891 104.137C292.177 104.28 292.32 104.566 292.606 104.709L284.026 109.714ZM308.765 95.414L298.469 101.277V100.276L306.906 95.414H308.765ZM293.321 104.28C293.035 104.137 292.749 103.851 292.463 103.708L297.897 100.562V101.706L293.321 104.28ZM334.219 78.826L320.348 86.834V85.833L334.076 77.825C334.219 78.111 334.219 78.54 334.219 78.826ZM281.023 109.714H279.164L290.604 102.993C290.89 103.279 291.033 103.422 291.319 103.565L281.023 109.714ZM305.619 95.414L298.469 99.418V98.417L303.903 95.414H305.619ZM292.034 103.279C291.748 103.136 291.605 102.85 291.319 102.564L297.897 98.846V99.847L292.034 103.279ZM333.79 77.253L320.348 84.975V83.974L333.647 76.395C333.79 76.681 333.647 76.967 333.79 77.253ZM277.877 109.714H276.447V109.428L289.603 101.849C289.746 102.135 289.889 102.278 290.175 102.564L277.877 109.714ZM302.616 95.414L298.469 97.702V96.701L300.757 95.414H302.616ZM290.89 102.135C290.604 101.849 290.318 101.706 290.175 101.42L297.897 96.987V98.131L290.89 102.135ZM333.361 75.68L320.348 83.259V82.544V82.258L333.075 74.822C333.218 75.108 333.218 75.394 333.361 75.68ZM289.031 101.42L276.447 108.713V107.712L288.459 100.705C288.602 100.991 288.888 101.134 289.031 101.42ZM275.589 109.142L274.731 109.714H273.015L275.589 108.141V109.142ZM299.47 95.414L298.469 95.843V95.414H299.47ZM289.746 100.991C289.603 100.705 289.317 100.562 289.174 100.276L297.754 95.414H297.897V96.272L289.746 100.991ZM332.789 74.25L320.348 81.4V80.399L332.503 73.392C332.646 73.678 332.646 73.964 332.789 74.25ZM288.173 100.133L276.447 106.997V105.853L287.601 99.418C287.744 99.704 288.03 99.847 288.173 100.133ZM275.589 107.283L271.728 109.714H269.869L275.589 106.282V107.283ZM288.745 99.847C288.602 99.561 288.316 99.275 288.173 98.989L294.608 95.414H296.467L288.745 99.847ZM331.645 73.106L320.348 79.684V78.683L329.786 73.106H331.645ZM287.172 98.846L276.447 105.138V104.137L286.743 98.131C286.886 98.417 287.029 98.56 287.172 98.846ZM275.589 105.567L268.582 109.714H266.866L275.589 104.566V105.567ZM287.744 98.56C287.601 98.274 287.458 98.131 287.315 97.845L291.462 95.414H293.321L287.744 98.56ZM319.204 78.54C319.061 78.254 318.775 78.111 318.632 77.825L319.633 77.253V78.254L319.204 78.54ZM328.499 73.106L320.348 77.825V76.824L326.64 73.106H328.499ZM329.786 72.534H327.927L331.073 70.675C331.216 70.961 331.359 71.104 331.502 71.39L329.786 72.534ZM319.347 79.112H319.633V79.684C319.633 79.541 319.49 79.255 319.347 79.112ZM331.073 72.534L331.788 71.962C331.931 72.105 331.931 72.391 332.074 72.534H331.073ZM286.314 97.559L276.447 103.422V102.278L285.885 96.844C286.028 97.13 286.171 97.273 286.314 97.559ZM275.589 103.708L265.579 109.714H263.72L275.589 102.707V103.708ZM287.029 97.273C286.886 96.987 286.6 96.701 286.457 96.415L288.459 95.414H290.175L287.029 97.273ZM318.346 77.253C318.203 76.967 317.917 76.824 317.774 76.538L319.633 75.537V76.538L318.346 77.253ZM325.353 73.106L320.348 76.109V75.108L323.637 73.106H325.353ZM326.64 72.534H324.781L330.215 69.388C330.358 69.674 330.501 69.817 330.644 70.103L326.64 72.534ZM285.599 96.272L276.447 101.563V100.562L285.17 95.414L285.599 96.272ZM275.589 101.992L262.433 109.714H261.289V109.285L275.589 100.991V101.992ZM286.171 95.843C286.028 95.7 286.028 95.557 285.885 95.414H287.172L286.171 95.843ZM317.345 76.109C317.059 75.823 316.916 75.537 316.63 75.394L319.633 73.678V74.679L317.345 76.109ZM322.35 73.106L320.348 74.25V73.249L320.491 73.106H322.35ZM323.494 72.534H321.778L329.357 68.101C329.5 68.387 329.643 68.53 329.786 68.816L323.494 72.534ZM284.026 95.414L276.447 99.847V98.703L282.31 95.414H284.026ZM275.589 100.133L261.289 108.427V107.426L275.589 99.132V100.133ZM319.204 73.106L316.201 74.965C315.915 74.822 315.629 74.536 315.343 74.393L317.488 73.106H319.204ZM320.491 72.534H320.348V71.533L328.356 66.957C328.499 67.243 328.785 67.243 328.928 67.529L320.491 72.534ZM281.023 95.414L276.447 97.988V96.987L279.164 95.414H281.023ZM275.589 98.417L261.289 106.711V105.71L275.589 97.416V98.417ZM316.201 73.106L314.771 73.964C314.485 73.821 314.056 73.678 313.77 73.535L314.342 73.106H316.201ZM319.633 71.104L317.345 72.534H315.629L319.633 70.103V71.104ZM327.784 66.385L320.348 70.818V69.674L327.212 65.67C327.498 65.956 327.641 66.099 327.784 66.385ZM319.633 71.962V72.534H318.632L319.633 71.962ZM277.877 95.414L276.447 96.272V95.414H277.877ZM275.589 96.558L261.289 104.852V103.851L275.589 95.557V96.558ZM313.055 73.106V73.249L312.912 73.106H313.055ZM319.633 69.388L314.342 72.534H312.483L319.633 68.387V69.388ZM326.783 65.241L320.348 68.959V67.958L326.068 64.669C326.354 64.812 326.497 64.955 326.783 65.241ZM274.731 95.414L261.289 103.136V102.135L273.015 95.414H274.731ZM319.633 67.529L311.196 72.534H309.48L319.633 66.528V67.529ZM325.496 64.24L320.348 67.1V66.099L324.781 63.525C325.067 63.668 325.21 64.097 325.496 64.24ZM271.728 95.414L261.289 101.277V100.276L269.869 95.414H271.728ZM319.633 65.813L308.193 72.534H306.334L319.633 64.812V65.813ZM324.209 63.096L320.348 65.384V64.383L323.351 62.524C323.637 62.667 323.923 62.953 324.209 63.096ZM268.582 95.414L261.289 99.561V98.56L266.866 95.414H268.582ZM319.633 63.954L305.047 72.534H303.188L319.633 62.953V63.954ZM322.779 62.238L320.348 63.525V62.524L321.921 61.666C322.207 61.809 322.493 62.095 322.779 62.238ZM303.76 73.106V73.249H304.904C302.044 74.393 299.613 76.824 298.469 79.827V73.249H298.898V73.106H300.757V73.249H302.044V73.106H303.76ZM265.579 95.414L261.289 97.702V96.701L263.72 95.414H265.579ZM319.633 62.238L301.901 72.534H300.185L319.633 61.237V62.238ZM321.206 61.237L320.348 61.809V60.808L321.206 61.237ZM262.433 95.414L261.289 95.986V95.414H262.433ZM319.633 60.522L298.898 72.534H298.469V71.676L318.632 59.95C318.918 60.093 319.347 60.379 319.633 60.522ZM317.774 59.664L298.469 70.818V70.532C301.043 69.388 303.331 67.672 305.333 65.813L316.63 59.378C317.059 59.521 317.345 59.521 317.774 59.664ZM295.752 72.534H294.036L294.608 72.105C295.752 71.819 296.896 71.39 297.897 70.961V71.247L295.752 72.534ZM297.039 72.534L297.897 71.962V72.534H297.039ZM315.772 59.092L306.906 64.24C307.478 63.668 308.05 62.953 308.479 62.238L314.485 58.806C314.914 58.949 315.343 58.949 315.772 59.092ZM294.608 71.39C293.607 71.676 292.606 71.962 291.605 72.105L297.897 68.387V69.531L294.608 71.39ZM298.469 69.102V68.101L306.906 63.239C306.191 64.097 305.333 64.812 304.618 65.527L298.469 69.102ZM299.041 69.531L300.9 68.53C300.328 68.959 299.613 69.245 299.041 69.531ZM313.627 58.52L309.337 61.094C309.623 60.522 310.052 59.95 310.338 59.378L312.197 58.377C312.626 58.377 313.198 58.377 313.627 58.52ZM289.889 72.248C289.174 72.391 288.602 72.391 287.887 72.391L297.897 66.671V67.672L289.889 72.248ZM298.469 67.243V66.242L309.051 60.093C308.622 60.665 308.336 61.237 307.907 61.809L298.469 67.243ZM311.053 58.234L310.91 58.377V58.234H311.053ZM297.897 65.956L286.6 72.391H285.885C286.028 72.105 286.314 71.819 286.457 71.533L297.897 64.812V65.956ZM298.469 65.527V64.526L309.337 58.234H310.195L309.766 59.092L298.469 65.527ZM283.74 72.248C283.311 72.248 282.739 72.105 282.31 71.962L286.886 69.388C286.6 69.96 286.171 70.532 285.885 71.104L283.74 72.248ZM297.897 64.097L287.172 70.389C287.601 69.817 287.887 69.245 288.316 68.673L297.897 63.096V64.097ZM308.05 58.234L298.469 63.668V62.667L306.048 58.377C306.763 58.234 307.335 58.234 308.05 58.234ZM284.884 72.391L285.313 72.105C285.313 72.248 285.17 72.248 285.17 72.391H284.884ZM281.452 71.819C281.023 71.676 280.594 71.676 280.165 71.533L289.317 66.242C288.745 66.814 288.316 67.529 287.744 68.244L281.452 71.819ZM297.897 62.381L289.317 67.243C290.032 66.385 290.747 65.527 291.605 64.812L297.897 61.237V62.381ZM304.332 58.52L298.469 61.952V60.951L301.186 59.378C302.187 59.092 303.188 58.663 304.332 58.52ZM279.307 71.247C278.878 71.104 278.592 70.961 278.163 70.818L297.897 59.521V59.95C295.323 61.094 293.035 62.667 291.033 64.526L279.307 71.247ZM301.901 58.234L301.186 58.663C300.328 58.949 299.327 59.092 298.469 59.521V59.092L300.185 58.234H301.901ZM277.448 70.532C277.162 70.389 276.733 70.246 276.447 70.103L297.039 58.234H297.897V58.806L277.448 70.532ZM298.898 58.234L298.469 58.377V58.234H298.898ZM297.897 57.376H297.039H295.18H293.893H292.177H290.89C294.036 56.232 296.753 53.801 297.897 50.655V57.376ZM276.447 69.388V68.387L294.036 58.234H295.752L276.447 69.388ZM334.648 34.639V35.354H333.504L334.648 34.639ZM334.648 33.924L332.217 35.354H330.358L334.648 32.78V33.924ZM274.159 68.959C273.873 68.816 273.444 68.53 273.158 68.387L275.589 66.957V67.958L274.159 68.959ZM276.447 67.672V66.528L290.89 58.234H292.749L276.447 67.672ZM274.731 69.245L275.589 68.816V69.817C275.303 69.674 275.017 69.388 274.731 69.245ZM334.648 32.065L329.071 35.354H327.355L334.648 31.064V32.065ZM272.586 67.958C272.3 67.815 272.157 67.529 271.871 67.386L275.589 65.241V66.242L272.586 67.958ZM276.447 65.813V64.812L287.744 58.234H289.603L276.447 65.813ZM334.648 30.349L326.068 35.354H324.209L334.648 29.205V30.349ZM271.299 66.957C271.013 66.814 270.727 66.528 270.441 66.385L275.589 63.382V64.383L271.299 66.957ZM276.447 64.097V62.953L284.741 58.234H286.457L276.447 64.097ZM334.648 28.49L322.922 35.354H321.206L334.648 27.489V28.49ZM270.012 65.956C269.726 65.813 269.583 65.527 269.297 65.241L275.589 61.666V62.667L270.012 65.956ZM276.447 62.238V61.237L281.595 58.234H283.454L276.447 62.238ZM334.648 26.774L320.348 34.925V33.924L334.648 25.63V26.774ZM268.868 64.812C268.582 64.526 268.296 64.383 268.153 64.097L275.589 59.807V60.808L268.868 64.812ZM276.447 60.522V59.378L278.592 58.234H280.308L276.447 60.522ZM281.595 57.376H279.736L281.309 56.518C281.595 56.661 282.024 56.947 282.31 57.09L281.595 57.376ZM319.633 34.353V35.354H318.06L319.633 34.353ZM334.648 24.915L320.348 33.209V32.208L334.648 23.914V24.915ZM319.633 33.638L316.773 35.354H314.914L319.633 32.637V33.638ZM267.724 63.668C267.581 63.382 267.295 63.239 267.152 62.953L275.446 58.234H275.589V59.092L267.724 63.668ZM276.447 58.663V58.234H277.305L276.447 58.663ZM278.449 57.376H276.733L279.879 55.517C280.165 55.66 280.451 55.946 280.737 56.089L278.449 57.376ZM334.648 23.199L320.348 31.35V30.349L334.648 22.055V23.199ZM319.633 31.779L313.627 35.354H311.911L319.633 30.778V31.779ZM275.446 57.376H273.587L275.589 56.232V57.233L275.446 57.376ZM274.159 58.234L266.723 62.524C266.58 62.238 266.294 62.095 266.151 61.809L272.3 58.234H274.159ZM279.45 55.088L276.447 56.947V55.803L278.735 54.516C278.878 54.802 279.164 54.945 279.45 55.088ZM334.648 21.34L320.348 29.634V28.633L333.504 21.054H334.648V21.34ZM319.633 30.063L310.91 35.068C310.767 34.782 310.624 34.639 310.481 34.353L319.633 29.062V30.063ZM272.3 57.376H270.584L275.589 54.516V55.517L272.3 57.376ZM271.156 58.234L265.865 61.237C265.722 60.951 265.436 60.808 265.293 60.522L269.297 58.234H271.156ZM278.306 53.944L276.447 55.088V54.087L277.734 53.229C277.877 53.515 278.163 53.658 278.306 53.944ZM309.909 34.639C310.052 34.782 310.052 35.211 310.195 35.354H308.765L309.909 34.639ZM332.217 21.054L320.348 27.775V26.774L330.358 21.054H332.217ZM319.633 28.204L310.195 33.781L309.766 32.923L319.633 27.203V28.204ZM309.48 34.067L307.478 35.354H305.762L309.051 33.352C309.194 33.638 309.337 33.781 309.48 34.067ZM269.297 57.376H267.438L275.589 52.657V53.658L269.297 57.376ZM268.01 58.234L265.007 59.95L264.578 59.092L266.151 58.234H268.01ZM277.448 52.657L276.447 53.372V52.228L277.019 51.942C277.162 52.228 277.305 52.371 277.448 52.657ZM329.071 21.054L320.348 26.059V25.058L327.355 21.054H329.071ZM319.633 26.488L309.337 32.494L308.908 31.636L319.633 25.487V26.488ZM308.765 32.78L304.475 35.354H302.616L308.193 32.065C308.336 32.351 308.622 32.494 308.765 32.78ZM266.151 57.376H264.292L275.589 50.941V51.942L266.151 57.376ZM264.864 58.234L264.292 58.52C264.292 58.377 264.006 58.377 264.006 58.234H264.864ZM276.733 51.37L276.447 51.513V50.655C276.59 50.941 276.59 51.084 276.733 51.37ZM326.068 21.054L320.348 24.2V23.199L324.209 21.054H326.068ZM319.633 24.629L308.479 31.207C308.336 30.921 308.05 30.635 307.907 30.349L319.633 23.628V24.629ZM307.907 31.493L301.329 35.354H299.47L307.335 30.778C307.478 31.064 307.764 31.207 307.907 31.493ZM263.577 57.09C263.434 56.804 263.291 56.661 263.148 56.375L275.589 49.082V50.083L263.577 57.09ZM322.922 21.054L320.348 22.484V21.483L321.206 21.054H322.922ZM319.633 22.913L307.478 29.92C307.335 29.634 307.049 29.491 306.906 29.205L319.633 21.912V22.913ZM306.906 30.206L298.469 35.068V34.067L306.334 29.634C306.477 29.92 306.763 29.92 306.906 30.206ZM263.005 55.66C262.862 55.374 262.862 55.088 262.719 54.802L275.589 47.366V48.367L263.005 55.66ZM296.467 35.354L297.897 34.496V35.354H296.467ZM295.18 35.354H293.321L297.897 32.637V33.781L295.18 35.354ZM319.633 21.054L306.477 28.776C306.334 28.49 306.191 28.347 305.905 28.061L318.06 21.054H319.633ZM305.905 29.062L298.469 33.352V32.351L305.19 28.49C305.476 28.776 305.762 28.776 305.905 29.062ZM262.433 54.23C262.29 53.944 262.29 53.658 262.147 53.372L275.589 45.507V46.508L262.433 54.23ZM292.034 35.354H290.318L297.897 30.921V31.922L292.034 35.354ZM316.773 21.054L305.333 27.632C305.047 27.346 304.904 27.06 304.618 26.917L314.914 21.054H316.773ZM304.761 27.918L298.469 31.493V30.492L304.046 27.346C304.332 27.489 304.475 27.632 304.761 27.918ZM262.004 52.657C261.861 52.371 261.861 52.085 261.861 51.799L275.589 43.791V44.792L262.004 52.657ZM289.031 35.354H288.316C288.03 35.354 287.744 35.211 287.315 35.211L297.897 29.062V30.206L289.031 35.354ZM313.627 21.054L304.189 26.488C303.903 26.345 303.617 26.059 303.331 25.916L311.911 21.054H313.627ZM303.474 26.917L298.469 29.777V28.776L302.759 26.345C303.045 26.488 303.188 26.774 303.474 26.917ZM261.718 51.084C261.718 50.798 261.575 50.369 261.575 50.083L275.589 41.932V42.933L261.718 51.084ZM276.447 41.503L277.019 41.074C276.733 41.503 276.447 41.503 276.447 41.503ZM285.885 35.211V35.354H284.169L297.897 27.346V28.347L285.885 35.211ZM310.624 21.054L302.902 25.487C302.616 25.344 302.33 25.058 302.044 24.915L308.765 21.054H310.624ZM302.187 25.916L298.469 27.918V26.917L301.329 25.344C301.615 25.487 301.901 25.773 302.187 25.916ZM261.432 49.368V48.367L275.589 40.216V41.217L261.432 49.368ZM276.447 40.788V39.787L280.165 37.642C279.307 38.357 278.592 39.072 277.877 39.93L276.447 40.788ZM261.432 47.652C261.432 47.366 261.289 47.08 261.289 46.794L261.432 46.651L275.589 38.357V39.358L261.432 47.652ZM276.447 39.072V37.928L279.736 35.926H281.595L276.447 39.072ZM282.882 35.354H281.023L297.897 25.487V26.631L282.882 35.354ZM307.478 21.054L301.472 24.486C301.186 24.343 300.9 24.057 300.614 23.914L305.762 21.054H307.478ZM300.757 24.915L298.469 26.202V25.201L299.899 24.343C300.185 24.486 300.471 24.772 300.757 24.915ZM261.432 45.936V44.792L275.589 36.641V37.642L261.432 45.936ZM276.447 37.213V36.212L276.733 35.926H278.449L276.447 37.213ZM279.736 35.354H277.877L297.897 23.771V24.772L279.736 35.354ZM304.475 21.054C303.045 21.912 301.329 22.77 299.899 23.628C299.613 23.485 299.327 23.199 299.041 23.056L302.616 21.054H304.475ZM299.184 24.057L298.469 24.343V23.628C298.755 23.771 298.898 23.914 299.184 24.057ZM275.446 35.926L261.432 44.077C261.432 43.648 261.575 43.362 261.575 42.933L273.587 35.926H275.446ZM276.59 35.354H276.447V34.353L296.467 22.77C296.753 22.913 297.182 23.056 297.468 23.199L276.59 35.354ZM301.329 21.054L298.469 22.627V21.626L299.47 21.054H301.329ZM272.3 35.926L261.718 42.075C261.861 41.646 261.861 41.36 262.004 40.931L270.584 35.926H272.3ZM275.589 34.067L273.587 35.354H271.728L275.589 33.066V34.067ZM295.752 22.484L276.447 33.638V32.637L294.608 22.055C295.037 22.198 295.323 22.341 295.752 22.484ZM296.467 22.055C296.038 21.912 295.752 21.769 295.323 21.626L296.467 21.054H297.897V21.197L296.467 22.055ZM275.589 34.782V35.354H274.874L275.589 34.782ZM297.325 22.341L297.897 21.912V22.484C297.754 22.341 297.468 22.484 297.325 22.341ZM269.297 35.926L262.29 40.073C262.433 39.644 262.433 39.215 262.576 38.786L267.438 35.926H269.297ZM275.589 32.208L270.441 35.354H268.725L275.589 31.207V32.208ZM293.75 21.769L276.447 31.922V30.778L292.463 21.483C292.892 21.626 293.321 21.626 293.75 21.769ZM294.608 21.34C294.179 21.197 293.75 21.197 293.321 21.054H295.18L294.608 21.34ZM266.151 35.926L262.862 37.928C263.005 37.499 263.291 36.927 263.434 36.498L264.292 35.926H266.151ZM275.589 30.492L267.438 35.354H265.579L275.589 29.491V30.492ZM291.462 21.34L276.447 30.063V29.062L290.032 21.197C290.461 21.197 291.033 21.197 291.462 21.34ZM275.589 28.633L264.292 35.354H264.006C264.292 34.925 264.435 34.353 264.721 33.924L275.589 27.632V28.633ZM288.888 21.054L276.447 28.347V27.203L287.172 21.054H288.888ZM275.589 26.917L265.436 32.78L266.723 31.064L275.589 25.916V26.917ZM285.885 21.054L276.447 26.488V25.487L283.74 21.197C284.455 21.054 285.17 21.054 285.885 21.054ZM275.589 25.058L267.867 29.634L270.441 27.06L275.589 24.057V25.058ZM281.881 21.483L276.447 24.772V23.628L278.449 22.484C279.593 22.055 280.737 21.769 281.881 21.483Z" fill="#18191A"/>
<path d="M429.053 65.384L408.604 85.833C403.456 80.542 400.31 73.392 400.31 65.384C400.31 57.376 403.456 50.083 408.604 44.792L429.053 65.384ZM429.482 65.813L450.074 86.262C444.783 91.41 437.49 94.556 429.482 94.556C421.474 94.556 414.324 91.41 409.033 86.262L429.482 65.813ZM429.482 64.812L409.033 44.363C414.324 39.215 421.474 35.926 429.482 35.926C437.49 35.926 444.783 39.215 450.074 44.363L429.482 64.812ZM430.054 65.384L450.503 44.792C455.651 50.083 458.94 57.376 458.94 65.384C458.94 73.392 455.651 80.542 450.503 85.833L430.054 65.384ZM459.512 109.714V100.705C460.37 99.99 461.228 99.275 462.086 98.417L473.383 109.714H459.512ZM458.94 20.196H441.065C439.921 19.91 438.92 19.767 437.776 19.624H458.94V20.196ZM458.94 21.054V29.205C454.507 25.487 449.216 22.77 443.496 21.054H458.94ZM458.94 109.714H443.496C449.216 107.998 454.507 105.138 458.94 101.42V109.714ZM458.94 110.286V111.144H437.776C438.92 111.001 439.921 110.572 441.065 110.286H458.94ZM475.242 35.926V57.09C473.812 49.225 470.523 41.932 465.661 35.926H475.242ZM475.242 110.286V110.572L475.099 110.286H475.242ZM475.242 94.556H465.661C470.523 88.55 473.812 81.4 475.242 73.535V94.556ZM475.242 95.414V109.714H474.384L462.658 97.845C463.516 96.987 464.231 96.272 464.946 95.414H475.242ZM475.099 20.196L475.242 20.053V20.196H475.099ZM474.384 21.054H475.242V35.354H464.946C464.231 34.496 463.516 33.638 462.658 32.78L474.384 21.054ZM473.383 21.054L462.086 32.208C461.228 31.35 460.37 30.635 459.512 29.92V21.054H473.383ZM383.722 94.556V73.535C385.152 81.4 388.584 88.55 393.446 94.556H383.722ZM383.722 110.286H384.008L383.722 110.572V110.286ZM400.31 110.286H418.042C419.186 110.572 420.187 111.001 421.331 111.144H400.31V110.286ZM383.722 109.714V95.414H394.161C394.876 96.272 395.591 96.987 396.449 97.845L384.723 109.714H383.722ZM399.452 109.714H385.724L396.878 98.417C397.736 99.275 398.594 99.99 399.452 100.705V109.714ZM400.31 109.714V101.42C404.743 105.138 409.891 107.998 415.611 109.714H400.31ZM400.31 20.196V19.624H421.331C420.187 19.767 419.186 19.91 418.042 20.196H400.31ZM400.31 21.054H415.611C409.891 22.77 404.743 25.487 400.31 29.205V21.054ZM399.452 21.054V29.92C398.594 30.635 397.736 31.35 396.878 32.208L385.724 21.054H399.452ZM383.722 20.196V20.053L384.008 20.196H383.722ZM383.722 35.354V21.054H384.723L396.449 32.78C395.591 33.638 394.876 34.496 394.161 35.354H383.722ZM383.722 35.926H393.446C388.584 41.932 385.152 49.225 383.722 57.09V35.926ZM486.682 20.196H476.1V19.338L482.535 12.903L481.963 12.331L476.1 18.337V0.318997H475.242V19.052L474.098 20.196H459.512V19.624H462.086V18.766H459.512V0.318997H458.94V18.766H429.482H400.31V0.318997H399.452V18.766H398.451V19.624H399.452V20.196H385.009L383.722 19.052V0.318997H383.15V18.337L377.144 12.331L376.572 12.903L383.15 19.338V20.196H373.569V21.054H383.15V35.354H373.569V35.926H383.15V65.384V94.556H375.142V95.414H383.15V109.714H375.142V110.286H383.15V111.287L376.143 118.151L376.715 118.723L383.15 112.288V131.593H383.722V111.573L385.009 110.286H399.452V111.144H398.451V111.716H399.452V131.593H400.31V111.716H429.482H458.94V131.593H459.512V111.716H462.086V111.144H459.512V110.286H474.098L475.242 111.573V131.593H476.1V112.288L479.246 115.577L479.818 115.005L476.1 111.287V110.286H489.828V109.714H476.1V95.414H486.968V94.556H476.1V65.384V35.926H486.682V35.354H476.1V21.054H486.682V20.196ZM445.784 108.141L458.511 100.705C454.793 103.851 450.36 106.425 445.784 108.141ZM442.781 109.142C442.209 109.285 441.494 109.571 440.922 109.714H440.064L458.94 98.703V99.847L442.781 109.142ZM460.942 98.56L459.512 99.418V98.274L461.228 97.416L461.657 97.845L460.942 98.56ZM461.8 96.987L463.373 96.129L462.086 97.416L461.8 96.987ZM438.777 109.714H436.918L458.94 96.987V97.988L438.777 109.714ZM460.656 96.987L459.512 97.559V96.558L460.084 96.272L460.656 96.987ZM463.516 95.414L461.371 96.558L460.656 95.986L461.657 95.414H463.516ZM437.49 110.286V110.429C436.632 110.572 435.917 110.572 435.059 110.715L435.774 110.286H437.49ZM462.944 94.556L466.233 92.697C465.804 93.412 465.232 93.984 464.66 94.556H462.944ZM435.631 109.714H433.915L458.511 95.414H458.94V96.272L435.631 109.714ZM461.657 94.556H459.798L468.235 89.694C467.806 90.266 467.52 90.838 467.091 91.41L461.657 94.556ZM434.487 110.286L433.486 110.858C432.771 110.858 432.199 111.001 431.484 111.001L432.628 110.286H434.487ZM432.628 109.714H430.769L455.508 95.414H457.367L432.628 109.714ZM468.95 88.55L459.512 93.984V92.983L469.808 86.977C469.522 87.549 469.236 87.978 468.95 88.55ZM431.341 110.286L430.197 111.001C430.054 111.001 429.625 111.144 429.482 111.144C429.053 111.144 428.767 111.001 428.338 111.001L429.625 110.286H431.341ZM458.94 93.412V94.127L458.368 93.698L458.94 93.412ZM457.796 93.984L458.368 94.556H456.795L457.796 93.984ZM429.482 109.714H427.766L452.362 95.414H454.221L429.482 109.714ZM470.38 85.976L459.512 92.268V91.124L471.095 84.546C470.809 84.975 470.666 85.547 470.38 85.976ZM428.338 110.286L427.194 111.001C426.622 111.001 426.05 110.858 425.478 110.858L426.479 110.286H428.338ZM458.94 92.697L457.939 93.126L457.224 92.554L458.94 91.553V92.697ZM457.224 93.555L455.508 94.556H453.649L456.652 92.84L457.224 93.555ZM426.479 109.714H424.62L449.359 95.414H451.075L426.479 109.714ZM471.524 83.545L459.512 90.409V89.408L472.096 82.115C471.953 82.544 471.667 83.116 471.524 83.545ZM425.192 110.286L424.477 110.858C424.048 110.858 423.333 110.572 422.904 110.572L423.333 110.286H425.192ZM458.94 90.838L456.795 92.125L456.08 91.41L458.94 89.837V90.838ZM456.223 92.411L452.362 94.556H450.503L455.508 91.696L456.223 92.411ZM423.333 109.714H421.474L446.213 95.414H448.072L423.333 109.714ZM472.525 81.257L459.512 88.693V87.549L472.954 79.827C472.811 80.256 472.668 80.828 472.525 81.257ZM422.046 110.286L421.903 110.429C421.76 110.429 421.617 110.286 421.474 110.286H422.046ZM458.94 89.122L455.651 90.981L455.079 90.266L458.94 87.978V89.122ZM455.079 91.267L449.216 94.556H447.5L454.364 90.695L455.079 91.267ZM420.187 109.714H418.471L443.21 95.414H444.926L420.187 109.714ZM473.24 78.969L459.512 86.834V85.833L473.669 77.682L473.24 78.969ZM458.94 87.263L454.507 89.837L453.935 89.122L458.94 86.262V87.263ZM453.935 90.123L446.213 94.556H444.354L453.22 89.551L453.935 90.123ZM417.47 109.428C417.041 109.285 416.755 109.285 416.326 109.142L440.064 95.414H441.923L417.47 109.428ZM473.812 76.824L459.512 85.118V83.974L474.098 75.537C473.955 75.966 473.955 76.395 473.812 76.824ZM458.94 85.547L453.363 88.693L452.791 87.978L458.94 84.403V85.547ZM452.791 88.979L443.067 94.556H441.351L452.076 88.407L452.791 88.979ZM415.468 108.856C415.039 108.713 414.753 108.57 414.324 108.427L436.918 95.414H438.777L415.468 108.856ZM474.384 74.679L459.512 83.259V82.258L474.527 73.535C474.384 73.964 474.527 74.25 474.384 74.679ZM458.94 83.688L452.219 87.549L451.647 86.834L458.94 82.687V83.688ZM451.647 87.835L440.064 94.556H438.205L440.636 93.269C443.353 92.125 445.927 90.695 448.215 88.836L450.932 87.263L451.647 87.835ZM474.67 72.677L459.512 81.543V80.399L474.813 71.533C474.813 71.962 474.67 72.248 474.67 72.677ZM458.94 81.972L451.075 86.405V86.262C451.647 85.69 452.076 84.975 452.648 84.403L458.94 80.828V81.972ZM413.466 108.141C413.037 107.998 412.751 107.855 412.465 107.712L433.915 95.414H435.631L413.466 108.141ZM437.49 94.27L436.918 94.556H436.06C436.489 94.413 437.061 94.413 437.49 94.27ZM474.956 70.818L459.512 79.684V78.683L475.099 69.674C475.099 70.103 474.956 70.389 474.956 70.818ZM458.94 80.113L453.792 83.116C454.221 82.544 454.507 81.972 454.936 81.4L458.94 79.112V80.113ZM411.75 107.426C411.464 107.283 410.892 107.14 410.606 106.997L430.769 95.414H432.628L411.75 107.426ZM475.242 68.959L459.512 77.968V76.824L475.242 67.815V68.959ZM458.94 78.397L455.651 80.256C455.937 79.827 456.08 79.255 456.366 78.683L458.94 77.253V78.397ZM409.891 106.711C409.605 106.568 409.319 106.282 409.033 106.139L427.766 95.414H429.482L409.891 106.711ZM475.242 67.1L459.512 76.109V75.108L475.242 65.956V67.1ZM458.94 76.538L456.938 77.682C457.081 77.253 457.367 76.681 457.51 76.252L458.94 75.537V76.538ZM408.318 105.853C408.032 105.71 407.603 105.424 407.317 105.281L424.62 95.414H426.479L408.318 105.853ZM475.242 65.241L459.512 74.393V73.249L475.242 64.24V65.241ZM458.94 74.822L457.796 75.394L458.225 74.107L458.94 73.678V74.822ZM406.745 104.995C406.459 104.852 406.173 104.566 405.887 104.423L421.474 95.414H423.333L406.745 104.995ZM475.242 63.525L459.512 72.534V71.533L475.242 62.524V63.525ZM458.94 72.963L458.511 73.106C458.654 72.677 458.654 72.391 458.797 71.962H458.94V72.963ZM405.172 103.994L404.314 103.565L418.471 95.414H420.187L405.172 103.994ZM421.474 94.556H419.758L420.759 93.984C421.188 94.127 421.474 94.27 421.903 94.413L421.474 94.556ZM475.242 61.809L459.512 70.818V69.674L475.099 60.808C475.099 61.094 475.242 61.523 475.242 61.809ZM403.742 103.136C403.456 102.993 403.17 102.707 402.884 102.564L415.325 95.414H417.184L403.742 103.136ZM418.471 94.556H416.612L418.757 93.412C419.186 93.555 419.472 93.555 419.901 93.698L418.471 94.556ZM474.956 60.093L459.512 68.959V67.958L474.956 59.092V60.093ZM402.312 102.135C402.026 101.992 401.883 101.706 401.597 101.563L412.322 95.414H414.038L402.312 102.135ZM415.325 94.556H413.466L417.041 92.554C417.327 92.697 417.756 92.84 418.042 92.983L415.325 94.556ZM474.813 58.377L459.512 67.243V66.099L474.67 57.376C474.67 57.662 474.813 58.091 474.813 58.377ZM401.025 101.134C400.739 100.991 400.596 100.705 400.31 100.562L409.176 95.414H411.035L401.025 101.134ZM412.179 94.556H410.463L415.325 91.839C415.611 91.982 416.04 92.125 416.326 92.268L412.179 94.556ZM474.527 56.804L459.512 65.384V64.383L474.384 55.803C474.384 56.089 474.527 56.518 474.527 56.804ZM400.31 99.847V98.703L406.173 95.414H407.889L400.31 99.847ZM409.176 94.556H407.317L413.752 90.838C414.038 90.981 414.467 91.267 414.753 91.41L409.176 94.556ZM474.241 55.231L459.512 63.668V62.524L473.955 54.23C474.098 54.516 474.241 54.945 474.241 55.231ZM399.023 99.418L399.452 99.132V99.847L399.023 99.418ZM400.31 97.988V96.987L403.027 95.414H404.886L400.31 97.988ZM406.03 94.556H404.314L412.322 89.98C412.608 90.123 412.894 90.409 413.18 90.552L406.03 94.556ZM398.594 98.989C398.308 98.846 398.165 98.56 397.879 98.274L399.452 97.416V98.417L398.594 98.989ZM473.812 53.658L459.512 61.809V60.808L473.526 52.657C473.669 52.943 473.669 53.372 473.812 53.658ZM400.31 96.272V95.414H401.74L400.31 96.272ZM403.027 94.556H401.168L411.035 88.979C411.321 89.122 411.464 89.408 411.75 89.551L403.027 94.556ZM397.736 97.702L399.452 95.843V96.558L397.736 97.702ZM473.383 52.085L459.512 60.093V58.949L473.097 51.227C473.24 51.513 473.24 51.799 473.383 52.085ZM396.735 97.13L397.736 96.558L396.878 97.416C396.878 97.273 396.735 97.273 396.735 97.13ZM398.594 95.414L396.306 96.701C396.163 96.415 395.734 96.272 395.591 95.986L396.878 95.414H398.594ZM410.463 88.55L401.883 93.412L404.457 90.981L409.748 87.835C410.034 87.978 410.177 88.407 410.463 88.55ZM458.797 58.663C458.797 58.377 458.797 58.091 458.654 57.805L458.94 57.662V58.663H458.797ZM472.954 50.512L459.512 58.234V57.233L472.525 49.654L472.954 50.512ZM398.022 94.556L399.452 93.841V94.556H398.022ZM402.026 92.411L400.31 94.127V93.412L402.026 92.411ZM396.735 94.556H395.019L399.452 91.982V92.983L396.735 94.556ZM395.591 95.414L395.162 95.557L395.019 95.414H395.591ZM403.742 90.552L400.31 92.697V91.553L406.316 88.121L403.742 90.552ZM409.176 87.406L406.173 89.265L408.604 86.834C408.89 86.977 408.89 87.263 409.176 87.406ZM458.511 57.09C458.368 56.804 458.368 56.518 458.225 56.232L458.94 55.803V56.947L458.511 57.09ZM472.382 49.082L459.512 56.518V55.374L471.953 48.224L472.382 49.082ZM394.161 94.413C394.018 94.127 393.732 93.984 393.589 93.698L399.452 90.266V91.267L394.161 94.413ZM408.032 86.405L400.31 90.838V89.837L407.46 85.69C407.603 85.976 407.889 85.976 408.032 86.262V86.405ZM457.939 55.66C457.796 55.374 457.796 55.088 457.653 54.802L458.94 54.087V55.088L457.939 55.66ZM471.81 47.652L459.512 54.659V53.658L471.381 46.794L471.81 47.652ZM393.16 93.126C393.017 92.84 392.874 92.697 392.731 92.411L399.452 88.407V89.408L393.16 93.126ZM407.031 85.118L400.31 89.122V87.978L406.459 84.403C406.602 84.689 406.888 84.832 407.031 85.118ZM457.367 54.087C457.224 53.801 457.224 53.658 457.081 53.372L458.94 52.228V53.372L457.367 54.087ZM471.095 46.222L459.512 52.943V51.799L470.809 45.364C470.952 45.65 470.952 45.936 471.095 46.222ZM392.302 91.839C392.159 91.553 391.873 91.41 391.73 91.124L399.452 86.691V87.692L392.302 91.839ZM406.03 83.974L400.31 87.263V86.262L405.458 83.259C405.601 83.545 405.887 83.688 406.03 83.974ZM456.795 52.657C456.652 52.371 456.509 52.228 456.366 51.942L458.94 50.512V51.513L456.795 52.657ZM470.523 44.792L459.512 51.084V50.083L470.094 44.077C470.237 44.363 470.38 44.506 470.523 44.792ZM391.444 90.552C391.301 90.266 391.015 90.123 390.872 89.837L399.452 84.832V85.833L391.444 90.552ZM405.029 82.687L400.31 85.547V84.403L404.6 81.972C404.743 82.258 404.886 82.401 405.029 82.687ZM456.08 51.37L455.651 50.512L458.94 48.653V49.797L456.08 51.37ZM469.808 43.505L459.512 49.368V48.224L469.379 42.647L469.808 43.505ZM390.586 89.265C390.443 88.979 390.3 88.836 390.157 88.55L399.452 83.116V84.117L390.586 89.265ZM404.171 81.4L400.31 83.688V82.687L403.742 80.685C403.885 80.971 404.028 81.114 404.171 81.4ZM455.365 49.94C455.222 49.654 455.079 49.511 454.936 49.225L458.94 46.937V47.938L455.365 49.94ZM468.95 42.075L459.512 47.509V46.508L468.521 41.36C468.664 41.646 468.807 41.789 468.95 42.075ZM389.728 87.978L389.299 87.12L399.452 81.257V82.258L389.728 87.978ZM403.456 80.113L400.31 81.972V80.828L403.027 79.255L403.456 80.113ZM454.507 48.653C454.364 48.367 454.221 48.224 454.078 47.938L458.94 45.078V46.222L454.507 48.653ZM468.235 40.788L459.512 45.793V44.649L467.663 40.073C467.806 40.359 468.092 40.502 468.235 40.788ZM389.013 86.548C388.87 86.262 388.727 86.119 388.584 85.833L399.452 79.541V80.542L389.013 86.548ZM402.741 78.683L400.31 80.113V79.112L402.312 77.825L402.741 78.683ZM453.649 47.366C453.506 47.08 453.22 46.937 453.077 46.651L458.94 43.362V44.363L453.649 47.366ZM467.377 39.501L459.512 43.934V42.933L466.805 38.786C466.948 39.072 467.234 39.215 467.377 39.501ZM388.298 85.261C388.155 84.975 388.155 84.689 388.012 84.403L399.452 77.682V78.683L388.298 85.261ZM402.026 77.253L400.31 78.397V77.253L401.597 76.395L402.026 77.253ZM452.648 46.222C452.505 45.936 452.219 45.793 452.076 45.507L458.94 41.503V42.647L452.648 46.222ZM466.376 38.214L459.512 42.218V41.074L465.947 37.499C466.09 37.785 466.233 37.928 466.376 38.214ZM387.726 83.831L387.297 82.973L399.452 75.966V76.967L387.726 83.831ZM401.454 75.823L400.31 76.538V75.537L401.168 74.965C401.311 75.251 401.311 75.537 401.454 75.823ZM451.647 44.935C451.504 44.649 451.218 44.506 451.075 44.363V44.22L458.94 39.787V40.788L451.647 44.935ZM465.518 36.927L459.512 40.359V39.358L464.946 36.212C465.089 36.498 465.375 36.641 465.518 36.927ZM387.154 82.401L386.725 81.543L399.452 74.107V75.108L387.154 82.401ZM400.882 74.393L400.31 74.822V73.678L400.596 73.535C400.739 73.821 400.739 74.107 400.882 74.393ZM452.934 42.504L455.365 40.073L458.94 37.928V39.072L452.934 42.504ZM464.088 35.926L459.512 38.643V37.499L462.229 35.926H464.088ZM386.582 80.971L386.153 80.113L399.452 72.391V73.392L386.582 80.971ZM400.453 72.82L400.31 72.963V71.962C400.31 72.248 400.31 72.534 400.453 72.82ZM449.359 42.79C449.073 42.647 448.93 42.218 448.644 42.075L457.224 37.213L454.793 39.644L449.359 42.79ZM462.229 35.354H460.37L462.801 33.924C462.944 34.21 463.373 34.353 463.516 34.639L462.229 35.354ZM457.081 38.214L458.94 36.498V37.213L457.081 38.214ZM460.942 35.926C460.513 36.212 459.941 36.498 459.512 36.784V35.926H460.942ZM449.788 43.219L452.934 41.36L450.503 43.791C450.217 43.505 450.074 43.362 449.788 43.219ZM463.516 35.354L463.945 35.068L464.088 35.354H463.516ZM386.01 79.398C385.867 79.112 385.867 78.826 385.724 78.54L399.452 70.532V71.533L386.01 79.398ZM457.939 35.926L448.072 41.646C447.786 41.503 447.643 41.217 447.357 41.074L456.08 35.926H457.939ZM462.372 33.352L461.371 33.924L462.086 33.209L462.372 33.352ZM385.581 77.968C385.438 77.682 385.438 77.253 385.295 76.967L399.452 68.816V69.817L385.581 77.968ZM456.08 35.354H454.221L458.94 32.637V33.638L456.08 35.354ZM454.793 35.926L446.785 40.645C446.499 40.502 446.213 40.216 445.927 40.073L453.077 35.926H454.793ZM461.228 32.351L459.512 33.209V32.208L460.513 31.636C460.799 31.779 460.942 32.065 461.228 32.351ZM457.367 35.354L458.94 34.353V35.354H457.367ZM461.514 32.923L459.512 34.782V33.924L461.514 32.923ZM385.152 76.395C385.009 76.109 384.866 75.68 384.866 75.394L399.452 66.957V67.958L385.152 76.395ZM452.934 35.354H451.218L458.94 30.778V31.922L452.934 35.354ZM451.79 35.926L445.355 39.787C445.069 39.644 444.64 39.358 444.354 39.215L449.931 35.926H451.79ZM460.084 31.207L459.512 31.493V30.778C459.655 30.921 459.941 31.064 460.084 31.207ZM384.723 74.822C384.723 74.536 384.58 74.107 384.58 73.821L399.452 65.241V65.384V66.242L384.723 74.822ZM449.931 35.354H448.072L458.082 29.491C458.368 29.634 458.511 29.92 458.797 30.063L449.931 35.354ZM448.644 35.926C447.071 36.927 445.355 37.785 443.782 38.786C443.496 38.643 443.067 38.5 442.781 38.357L446.785 35.926H448.644ZM384.437 73.106C384.437 72.82 384.294 72.534 384.294 72.248L399.452 63.382V64.383L384.437 73.106ZM446.785 35.354H445.069L456.652 28.49C456.938 28.633 457.224 28.919 457.51 29.062L446.785 35.354ZM445.498 35.926L442.066 38.071C441.78 37.928 441.351 37.642 441.065 37.499C441.923 36.927 442.924 36.498 443.782 35.926H445.498ZM384.151 71.533V70.532L399.452 61.666V62.667L384.151 71.533ZM443.782 35.354H441.923L455.365 27.489C455.651 27.632 455.937 27.918 456.223 28.061L443.782 35.354ZM442.495 35.926L440.35 37.213C439.921 37.07 439.635 37.07 439.206 36.927L440.636 35.926H442.495ZM384.008 69.817C384.008 69.531 383.865 69.102 383.865 68.816L399.452 59.807V60.808L384.008 69.817ZM440.636 35.354H438.777L453.935 26.631L454.793 27.06L440.636 35.354ZM439.349 35.926L438.348 36.641C437.919 36.498 437.633 36.355 437.204 36.212L437.633 35.926H439.349ZM383.865 68.101V67.1L399.452 58.091V59.092L383.865 68.101ZM400.31 58.663V57.662L400.596 57.376C400.453 57.805 400.453 58.234 400.31 58.663ZM437.49 35.354H435.774L452.362 25.63C452.648 25.773 452.934 26.059 453.22 26.202L437.49 35.354ZM436.346 35.926L436.203 36.069L436.06 35.926H436.346ZM383.865 66.385C383.865 66.099 383.722 65.67 383.722 65.384L399.452 56.232V57.233L383.865 66.385ZM400.31 56.947V55.803L401.311 55.231L400.882 56.518L400.31 56.947ZM434.487 35.354H432.628L450.789 24.772C451.075 24.915 451.504 25.201 451.79 25.344L434.487 35.354ZM383.865 64.669V63.525L399.452 54.516V55.517L383.865 64.669ZM400.31 55.088V54.087L402.169 52.943C402.026 53.372 401.74 53.944 401.597 54.373L400.31 55.088ZM431.341 35.354H429.625L449.073 23.914C449.359 24.057 449.788 24.343 450.074 24.486L431.341 35.354ZM383.865 62.81V61.666L399.452 52.657V53.658L383.865 62.81ZM400.31 53.372V52.228L403.456 50.369C403.17 50.798 403.027 51.37 402.741 51.942L400.31 53.372ZM428.338 35.354H426.479L447.357 23.199C447.643 23.342 448.072 23.485 448.358 23.628L428.338 35.354ZM384.008 60.951C384.008 60.522 384.151 60.236 384.151 59.807L399.452 50.941V51.942L384.008 60.951ZM400.31 51.513V50.512L405.315 47.509C404.886 48.081 404.6 48.653 404.171 49.225L400.31 51.513ZM425.192 35.354H423.333L445.641 22.484C446.07 22.627 446.356 22.77 446.642 22.913L425.192 35.354ZM384.294 58.949C384.294 58.52 384.437 58.234 384.437 57.805L399.452 49.082V50.083L384.294 58.949ZM400.31 49.797V48.653L407.889 44.22L408.032 44.363C407.46 44.935 407.031 45.507 406.459 46.079L400.31 49.797ZM421.474 36.355L422.189 35.926H423.047C422.475 36.069 421.903 36.212 421.474 36.355ZM384.58 57.09C384.723 56.661 384.58 56.232 384.723 55.803L399.452 47.366V48.367L384.58 57.09ZM422.046 35.354H420.33L443.639 21.769C444.068 21.912 444.354 22.055 444.783 22.198L422.046 35.354ZM408.175 43.362L407.46 42.79L419.043 35.926H420.902L418.471 37.356C415.754 38.5 413.18 39.93 410.892 41.789L408.175 43.362ZM400.31 47.938V46.937L406.888 43.076C407.174 43.362 407.174 43.505 407.46 43.791L400.31 47.938ZM385.009 54.945C385.152 54.516 385.152 54.23 385.295 53.801L399.452 45.507V46.508L385.009 54.945ZM419.043 35.354H417.184L441.637 21.197C442.066 21.34 442.352 21.34 442.781 21.483L419.043 35.354ZM407.031 42.218L406.316 41.646L416.04 35.926H417.756L407.031 42.218ZM400.31 46.222V45.078L405.744 41.932L406.316 42.647L400.31 46.222ZM385.438 52.943L385.867 51.656L399.452 43.791V44.792L385.438 52.943ZM415.897 35.354H414.181L438.777 21.054H440.636L415.897 35.354ZM405.887 41.074L405.172 40.502L412.894 35.926H414.753L405.887 41.074ZM400.31 44.363V43.362L404.6 40.788L405.172 41.503L400.31 44.363ZM386.153 50.798C386.296 50.369 386.439 49.797 386.582 49.368L399.452 41.932V42.933L386.153 50.798ZM412.894 35.354H411.035L435.774 21.054H437.49L412.894 35.354ZM404.743 39.93L404.028 39.358L409.748 35.926H411.607L404.743 39.93ZM400.31 42.647V41.503L403.456 39.644L404.028 40.359L400.31 42.647ZM387.011 48.51C387.154 48.081 387.44 47.509 387.583 47.08L399.452 40.216V41.217L387.011 48.51ZM409.748 35.354H408.032L432.628 21.054H434.487L409.748 35.354ZM436.06 20.053L435.631 20.196H433.915L434.63 19.767C435.059 19.767 435.631 20.053 436.06 20.053ZM403.599 38.786L402.884 38.214C404.171 37.499 405.458 36.641 406.745 35.926H408.461L403.599 38.786ZM400.31 40.788V39.787L402.312 38.5L403.027 39.215L400.31 40.788ZM388.012 46.079C388.298 45.65 388.441 45.078 388.727 44.649L399.452 38.357V39.358L388.012 46.079ZM406.745 35.354H404.886L429.625 21.054H431.341L406.745 35.354ZM433.486 19.767L432.628 20.196H430.769L431.913 19.624C432.485 19.624 432.914 19.767 433.486 19.767ZM402.455 37.785L401.74 37.07L403.599 35.926H405.458L402.455 37.785ZM400.31 39.072V37.928L401.168 37.499L401.883 38.071L400.31 39.072ZM389.299 43.505C389.585 42.933 389.871 42.647 390.157 42.075L399.452 36.641V37.642L389.299 43.505ZM403.599 35.354H401.74L426.479 21.054H428.338L403.599 35.354ZM430.769 19.624L429.482 20.196H427.766L428.91 19.624H429.482H430.769ZM401.311 36.641L400.739 35.926H402.312L401.311 36.641ZM400.31 37.213V36.498L400.739 36.927L400.31 37.213ZM399.309 35.926L390.872 40.788C391.301 40.216 391.587 39.787 392.016 39.215L397.45 35.926H399.309ZM400.453 35.354H400.31V34.353L423.333 21.054H425.192L400.453 35.354ZM427.623 19.624L426.479 20.196H424.62L425.621 19.767C426.336 19.767 426.908 19.624 427.623 19.624ZM396.163 35.926L392.874 37.928C393.303 37.356 393.875 36.498 394.447 35.926H396.163ZM422.046 21.054L400.31 33.638V32.637L420.33 21.054H422.046ZM424.048 19.91L423.333 20.196C423.333 20.196 423.19 20.053 424.048 19.91ZM399.023 34.353L398.451 33.638L399.452 33.066V34.067L399.023 34.353ZM397.45 35.354H395.591L397.736 34.067L398.451 34.639L397.45 35.354ZM398.737 35.354L398.88 35.211L399.023 35.354H398.737ZM419.043 21.054L400.31 31.922V30.778L416.326 21.483C416.898 21.34 417.613 21.197 418.185 21.054H419.043ZM397.879 33.209L397.45 32.78L398.165 32.065L399.452 31.207V32.208L397.879 33.209ZM397.307 33.495L395.734 34.496C396.163 34.067 396.449 33.638 396.878 33.209L397.307 33.495ZM413.18 22.627L400.739 29.777C404.457 26.774 408.604 24.343 413.18 22.627ZM607.594 18.766H605.163V0.318997H604.305V18.766H574.99H545.818V0.318997H544.96V18.766H543.959V19.624H544.96V20.196H530.517L529.23 19.052V0.318997H528.515V18.194L522.652 12.331L522.08 12.903L528.515 19.338V20.196H519.077V21.054H528.515V35.354H519.077V35.926H528.515V94.556H520.65V95.414H528.515V109.714H520.65V110.286H528.515V111.287L521.651 118.151L522.223 118.723L528.515 112.431V131.593H528.658H529.23V111.716L530.66 110.286H544.96V111.144H543.959V111.716H544.96V131.593H545.818V111.716H574.99H604.305V131.593H605.163V111.716H607.594V111.144H605.163V110.286H613.028V109.714H605.163V100.705C606.021 99.99 606.879 99.275 607.594 98.417L620.607 111.43L620.75 111.287V131.593H621.608V65.384V19.338L628.043 12.903L627.471 12.331L621.608 18.194V0.318997H620.75V19.052L607.594 32.208C606.879 31.35 606.021 30.635 605.163 29.92V21.054H612.885V20.196H605.163V19.624H607.594V18.766ZM608.166 32.78L620.75 20.196V56.518C619.892 52.514 618.605 48.653 616.889 44.935C615.316 41.789 613.314 38.786 611.169 35.926H612.885V35.354H610.454C609.739 34.353 609.024 33.495 608.166 32.78ZM611.169 94.556C611.598 94.127 612.027 93.555 612.313 93.126C616.46 87.549 619.32 81.257 620.75 74.25V110.429L608.166 97.845C609.024 97.13 609.739 96.272 610.454 95.414H613.028V94.556H611.169ZM529.23 21.054H530.231L541.957 32.78C541.099 33.495 540.384 34.353 539.669 35.354H529.23V21.054ZM529.23 20.053L529.373 20.196H529.23V20.053ZM544.96 93.841L543.816 94.556H542.243L544.96 92.983V93.841ZM544.96 92.125L540.813 94.556H539.812C539.812 94.413 539.669 94.27 539.526 94.127L544.96 91.124V92.125ZM545.818 35.354V35.211L570.414 21.054H571.987L547.391 35.354H545.818ZM545.818 33.495L567.268 21.054H568.841L545.818 34.496V33.495ZM545.818 31.636L564.265 21.054H565.695L545.818 32.637V31.636ZM545.818 30.063C546.104 29.777 546.533 29.491 546.962 29.205L557.687 23.056C558.974 22.484 560.404 21.912 561.834 21.483L545.818 30.778V30.063ZM547.248 28.061C546.819 28.347 546.247 28.776 545.818 29.205V21.054H560.69C560.118 21.197 559.546 21.483 558.974 21.626C558.545 21.769 558.116 21.912 557.687 22.198C553.969 23.628 550.537 25.63 547.248 28.061ZM545.818 109.714V101.42C550.251 104.995 555.399 107.855 561.119 109.714H545.818ZM542.529 98.417C543.244 99.275 544.102 99.99 544.96 100.705V109.714H531.232L542.529 98.417ZM539.669 95.414C539.812 95.557 539.812 95.7 539.955 95.843C540.67 96.558 541.242 97.13 541.957 97.845L530.231 109.714H529.23V95.414H539.669ZM565.695 110.715C565.838 110.858 566.124 110.858 566.267 111.001C566.553 111.001 566.696 111.001 566.839 111.144H545.818V110.286H563.55C563.836 110.429 564.265 110.429 564.551 110.572C564.98 110.572 565.266 110.715 565.695 110.715ZM529.23 110.572V110.286H529.516L529.23 110.572ZM538.954 94.556H529.23V73.535C530.66 81.4 534.092 88.55 538.954 94.556ZM574.561 95.414H574.99H576.42L556.257 106.997C555.971 106.854 555.542 106.711 555.256 106.568L574.561 95.414ZM554.684 95.414L545.818 100.562V99.561L553.111 95.414H554.684ZM551.681 95.414L545.818 98.846V97.845L549.965 95.414H551.681ZM548.535 95.414L545.818 96.987V95.986L546.819 95.414H548.535ZM540.67 95.414H542.243L541.099 95.986C540.956 95.843 540.813 95.7 540.67 95.414ZM542.958 96.844L542.243 97.273C542.1 96.987 541.957 96.844 541.671 96.701L543.816 95.414H544.388L542.958 96.844ZM545.818 92.411L549.536 90.266L547.248 92.554L545.818 93.412V92.411ZM545.818 90.552L553.397 86.262C553.397 86.262 553.397 86.262 553.54 86.262L551.538 88.264L545.818 91.553V90.552ZM545.818 88.836L552.396 85.118C552.539 85.261 552.682 85.547 552.825 85.69L545.818 89.837V88.836ZM545.818 87.12L551.252 83.831C551.538 84.117 551.681 84.26 551.824 84.546L545.818 87.978V87.12ZM545.818 85.261L550.394 82.687C550.537 82.83 550.68 83.116 550.823 83.259L545.818 86.119V85.261ZM545.818 83.545L549.536 81.4C549.679 81.543 549.822 81.829 549.965 82.115L545.818 84.546V83.545ZM545.818 81.686L548.678 79.97C548.821 80.256 548.964 80.399 549.107 80.685L545.818 82.687V81.686ZM545.818 79.97L547.963 78.683C548.106 78.826 548.249 79.112 548.392 79.398L545.818 80.828V79.97ZM545.818 78.111L547.391 77.253C547.534 77.539 547.534 77.682 547.677 77.968L545.818 79.112V78.111ZM545.818 76.395L546.819 75.823C546.962 76.109 546.962 76.252 547.105 76.538L545.818 77.253V76.395ZM545.818 74.536L546.247 74.25C546.39 74.536 546.533 74.822 546.533 75.108L545.818 75.537V74.536ZM545.818 72.82C545.961 72.963 545.961 73.249 546.104 73.535L545.818 73.678V72.82ZM596.011 43.791C596.011 43.791 596.011 43.791 595.868 43.648L596.297 43.505L596.011 43.791ZM567.125 94.413C567.411 94.413 567.554 94.556 567.84 94.556H566.839L567.125 94.413ZM566.124 94.127L565.409 94.556H563.836L565.266 93.841C565.552 93.841 565.838 93.984 566.124 94.127ZM564.265 93.412L562.406 94.556H560.69L563.264 92.983C563.55 93.126 563.979 93.269 564.265 93.412ZM562.406 92.697L559.26 94.556H557.544L561.548 92.268C561.834 92.411 562.12 92.554 562.406 92.697ZM560.833 91.839L556.257 94.556H554.541L559.975 91.41C560.261 91.553 560.547 91.696 560.833 91.839ZM559.26 90.981L553.111 94.556H551.395L558.402 90.409C558.688 90.695 558.974 90.838 559.26 90.981ZM557.83 89.98L549.965 94.556H548.249L556.972 89.408C557.258 89.694 557.544 89.837 557.83 89.98ZM547.963 92.983L555.685 88.407C555.971 88.693 556.257 88.836 556.4 88.979L546.819 94.556H546.39L547.963 92.983ZM552.253 88.693L554.541 87.406C554.827 87.549 554.97 87.835 555.256 87.978L549.965 90.981L552.253 88.693ZM544.96 97.416L543.387 98.417C543.244 98.274 543.101 98.131 542.958 97.988L543.816 97.13L544.96 96.415V97.416ZM605.592 35.354L607.308 33.638L607.594 33.352C608.309 33.924 608.881 34.639 609.453 35.354H605.592ZM605.163 32.208V31.207H605.449C605.592 31.35 605.878 31.493 606.021 31.779L605.163 32.208ZM606.879 32.923L605.163 33.924V33.066L606.593 32.208C606.736 32.351 606.879 32.494 607.022 32.78L606.879 32.923ZM610.025 35.926C616.746 43.934 620.75 54.23 620.75 65.384C620.75 74.25 618.176 82.544 613.886 89.551C612.742 91.267 611.598 92.983 610.311 94.556H605.163V35.926H610.025ZM581.139 20.196L581.425 20.053C581.711 20.053 581.997 20.196 582.283 20.196H581.139ZM577.85 20.196L578.565 19.767C579.137 19.767 579.566 19.91 579.995 19.91L579.566 20.196H577.85ZM574.99 20.196L575.848 19.624C576.277 19.624 576.849 19.624 577.278 19.624L576.42 20.196H574.99ZM571.844 20.196L572.845 19.624C573.417 19.624 573.846 19.624 574.418 19.624L573.417 20.196H571.844ZM568.698 20.196L569.127 20.053C569.699 19.91 570.414 19.91 570.986 19.767L570.271 20.196H568.698ZM607.737 97.416L605.735 95.414H609.453C608.881 96.129 608.309 96.701 607.737 97.416ZM544.96 33.924V34.639L544.531 34.21L544.96 33.924ZM544.96 31.207L543.673 31.922C544.102 31.636 544.531 31.207 544.96 30.921V31.207ZM544.96 33.209L543.959 33.638L543.387 33.066L544.96 32.208V33.209ZM542.672 33.495L543.244 34.067L541.242 35.354H540.527C541.242 34.496 541.814 34.067 542.672 33.495ZM604.305 29.205C601.588 26.917 598.585 25.058 595.439 23.485C593.437 22.627 591.435 21.769 589.29 21.054H604.305V29.205ZM604.305 101.42V109.714H589.004C594.724 107.855 599.872 104.995 604.305 101.42ZM552.968 42.647C552.825 42.504 552.682 42.361 552.396 42.075L562.978 35.926H564.694L552.968 42.647ZM551.967 41.646L551.252 40.931L559.832 35.926H561.548L551.967 41.646ZM550.823 40.502L550.251 39.93L556.829 35.926H558.402L550.823 40.502ZM549.679 39.358L549.107 38.786L553.826 35.926H555.399L549.679 39.358ZM548.535 38.214L547.963 37.642C548.821 37.07 549.679 36.498 550.68 35.926H552.253L548.535 38.214ZM547.391 37.07L546.819 36.498L547.677 35.926H549.25L547.391 37.07ZM564.122 37.356C563.693 37.499 563.264 37.642 562.835 37.928L566.124 35.926H567.697C567.268 36.212 566.839 36.355 566.41 36.641C565.695 36.784 564.837 37.07 564.122 37.356ZM555.113 42.933C554.684 43.219 554.398 43.505 554.112 43.791L553.54 43.219L557.401 41.074C556.543 41.646 555.828 42.218 555.113 42.933ZM605.163 99.704V99.132L607.022 98.131C606.45 98.703 605.735 99.275 605.163 99.704ZM605.163 98.417V97.273L606.021 96.844L606.736 97.559L605.163 98.417ZM605.163 96.558V95.986L605.592 96.415L605.163 96.558ZM593.866 88.836C594.581 88.121 595.296 87.549 596.011 86.834L596.44 87.263C595.582 87.692 594.724 88.264 593.866 88.836ZM600.873 94.556L602.732 93.555L603.304 94.127L602.446 94.556H600.873ZM597.727 94.556L601.588 92.411L602.16 92.983L599.443 94.556H597.727ZM594.581 94.556L600.444 91.267L601.016 91.839L596.297 94.556H594.581ZM591.435 94.556L599.3 90.123L599.872 90.695L593.151 94.556H591.435ZM588.432 94.556L598.156 88.979L598.728 89.551L590.148 94.556H588.432ZM585.429 94.556L597.012 87.835L597.584 88.407L586.859 94.556H585.429ZM582.283 94.556C582.426 94.556 582.426 94.556 582.426 94.413C583.713 94.127 584.857 93.841 586.001 93.269L583.856 94.556H582.283ZM545.961 57.519L545.818 57.662V56.661L546.39 56.375C546.247 56.804 546.104 57.09 545.961 57.519ZM546.676 55.374L545.818 55.946V54.945L547.105 54.23C546.962 54.516 546.819 54.945 546.676 55.374ZM547.534 53.086L545.818 54.087V53.086L548.249 51.656C547.963 52.085 547.82 52.657 547.534 53.086ZM548.964 50.369L545.818 52.228V51.227L549.965 48.939C549.536 49.368 549.25 49.94 548.964 50.369ZM550.823 47.509L545.818 50.512V49.511L552.253 45.793C551.681 46.365 551.252 46.937 550.823 47.509ZM553.397 44.22L545.818 48.653V47.795L552.825 43.648L553.397 44.22ZM552.253 43.076L545.818 46.937V45.936L551.681 42.504L552.253 43.076ZM551.252 42.075L545.818 45.078V44.22L550.537 41.36L551.252 42.075ZM550.108 40.931L545.818 43.362V42.361L549.536 40.359L550.108 40.931ZM548.964 39.787L545.818 41.503V40.645L548.392 39.215L548.964 39.787ZM547.82 38.643L545.818 39.787V38.786L547.248 38.071L547.82 38.643ZM546.676 37.499L545.818 37.928V37.07L546.104 36.927L546.676 37.499ZM597.584 85.118C600.73 81.543 603.161 77.11 604.305 72.105V93.984L602.875 92.554L601.731 91.41L600.587 90.266L599.443 89.122L598.871 88.55L598.299 87.978L597.727 87.406L597.155 86.834L596.583 86.262C596.869 85.976 597.298 85.547 597.584 85.118ZM596.583 44.363L604.305 36.641V58.52C603.018 53.086 600.301 48.224 596.583 44.363ZM583.284 111.144C584.428 110.858 585.429 110.572 586.573 110.286H604.305V111.144H583.284ZM544.96 21.054V29.92C544.102 30.635 543.244 31.35 542.529 32.208L531.375 21.054H544.96ZM545.818 20.196V19.624H566.124C565.266 19.767 564.408 20.053 563.55 20.196H545.818ZM586.43 20.196C585.572 20.053 584.714 19.767 583.856 19.624H604.305V20.196H586.43ZM575.562 65.384L596.011 44.935C597.584 46.508 599.014 48.224 600.158 50.083C602.446 53.944 604.019 58.52 604.305 63.239V67.386C603.876 73.964 601.159 79.97 597.155 84.546C596.726 84.975 596.44 85.404 596.011 85.69L575.562 65.384ZM574.99 64.812L554.684 44.363C554.97 43.934 555.399 43.648 555.828 43.219C560.976 38.786 567.697 35.926 574.99 35.926H575.133C580.71 36.069 585.858 37.642 590.291 40.359C592.15 41.503 593.866 42.79 595.439 44.363L574.99 64.812ZM574.99 65.956L595.439 86.262C590.148 91.41 582.855 94.556 574.99 94.556C567.125 94.556 559.832 91.41 554.684 86.262L574.99 65.956ZM574.418 65.384L554.112 85.69C548.964 80.542 545.818 73.249 545.818 65.384C545.818 57.519 548.964 50.226 554.112 44.935L574.418 65.384ZM529.23 35.926H538.954C534.092 41.932 530.66 49.225 529.23 57.09V35.926ZM542.672 35.354L543.816 34.639L544.388 35.211V35.354H542.672ZM541.385 35.926H543.101L537.381 39.358C537.81 38.786 538.239 38.214 538.668 37.642L541.385 35.926ZM540.098 35.926L539.812 36.212C539.812 36.069 539.955 36.069 539.955 35.926H540.098ZM544.531 35.926H544.96V36.641L535.665 42.075C535.951 41.503 536.237 41.074 536.523 40.645L544.531 35.926ZM548.964 35.354L573.417 21.054H574.847L550.394 35.354H548.964ZM534.807 43.505L544.96 37.642V38.5L534.235 44.792C534.378 44.363 534.664 43.934 534.807 43.505ZM551.824 35.354L576.42 21.054H578.136L553.54 35.354H551.824ZM533.663 45.793L544.96 39.358V40.216L533.091 47.223C533.234 46.651 533.377 46.222 533.663 45.793ZM555.113 35.354L579.709 21.054H581.282L556.686 35.354H555.113ZM532.519 48.224L544.96 41.074V42.075L532.09 49.511C532.233 49.082 532.376 48.653 532.519 48.224ZM558.116 35.354L582.712 21.054H584.142L559.689 35.354H558.116ZM531.804 50.512L544.96 42.933V43.791L531.375 51.799C531.518 51.37 531.661 50.941 531.804 50.512ZM561.119 35.354L585.572 21.054H586.43C586.573 21.054 586.859 21.197 587.002 21.197L562.835 35.354H561.119ZM531.089 52.8L544.96 44.649V45.65L530.803 53.944C530.803 53.515 530.946 53.086 531.089 52.8ZM564.265 35.354L588.003 21.483C588.432 21.626 588.718 21.769 589.147 21.912L565.838 35.354H564.265ZM530.517 54.945L544.96 46.508V47.366L530.231 55.803C530.374 55.517 530.374 55.231 530.517 54.945ZM567.268 35.354L590.005 22.198C590.291 22.198 590.72 22.341 591.006 22.484L568.984 35.354H567.268ZM530.088 56.947L544.96 48.224V49.225L529.945 57.948C529.945 57.519 529.945 57.233 530.088 56.947ZM529.802 58.806L544.96 49.94V50.941L529.659 59.95C529.659 59.521 529.659 59.092 529.802 58.806ZM570.271 35.354L591.864 22.77C592.15 22.913 592.579 23.056 592.865 23.199L571.987 35.354H570.271ZM529.516 60.808L544.96 51.799V52.8L529.373 61.809C529.516 61.523 529.516 61.094 529.516 60.808ZM573.56 35.354L593.723 23.628C594.009 23.771 594.295 23.914 594.581 24.057L575.133 35.354H573.56ZM529.373 62.667L544.96 53.658V54.659L529.373 63.668C529.373 63.382 529.373 62.953 529.373 62.667ZM576.563 35.354L595.296 24.343C595.582 24.486 595.868 24.629 596.154 24.772L578.279 35.354H576.563ZM529.373 64.383L544.96 55.374V56.375L529.23 65.384C529.23 64.955 529.373 64.669 529.373 64.383ZM579.709 35.354L597.012 25.201C597.298 25.344 597.441 25.487 597.727 25.63L581.425 35.354H579.709ZM529.373 66.242L544.96 57.233V58.091L529.373 67.1C529.373 66.814 529.373 66.528 529.373 66.242ZM582.712 35.354L598.442 26.059C598.728 26.345 599.157 26.488 599.443 26.631L584.428 35.354H582.712ZM529.373 67.958L544.96 58.949V59.95L529.373 68.816C529.373 68.53 529.373 68.244 529.373 67.958ZM583.284 35.926L582.712 36.212C582.426 36.212 581.997 36.069 581.568 35.926H583.284ZM584.714 35.926H586.287L584.857 36.927C584.428 36.784 584.142 36.641 583.713 36.498L584.714 35.926ZM585.858 35.354L600.015 27.06C600.301 27.203 600.587 27.489 600.873 27.632L587.574 35.354H585.858ZM529.516 69.674L544.96 60.808V61.809L529.659 70.532C529.516 70.246 529.516 69.96 529.516 69.674ZM587.717 35.926H589.433C588.575 36.498 587.574 37.07 586.716 37.642C586.287 37.499 586.001 37.356 585.572 37.213C586.287 36.784 587.002 36.355 587.717 35.926ZM589.004 35.354L601.445 28.061C601.731 28.204 602.017 28.347 602.16 28.633L590.72 35.354H589.004ZM529.659 71.39L544.96 62.524V63.525L529.802 72.391C529.802 71.962 529.802 71.676 529.659 71.39ZM590.863 35.926H592.436L588.289 38.357C588.003 38.214 587.717 38.071 587.431 37.928C588.575 37.356 589.719 36.641 590.863 35.926ZM592.007 35.354L602.875 29.062C603.161 29.205 603.304 29.491 603.59 29.634L593.723 35.354H592.007ZM529.945 72.963L544.96 64.24V65.384L530.088 73.964C530.088 73.535 529.945 73.249 529.945 72.963ZM594.009 35.926H595.582L590.005 39.215C589.719 39.072 589.433 38.929 589.147 38.786L594.009 35.926ZM595.153 35.354L604.162 30.063L604.305 30.206V30.921L596.726 35.354H595.153ZM530.231 74.679L544.96 66.099V67.1L530.374 75.394C530.374 75.251 530.374 74.965 530.231 74.679ZM597.012 35.926H598.585L591.435 40.073C591.149 39.93 590.863 39.787 590.72 39.644L597.012 35.926ZM598.299 35.354L604.305 31.779V32.78L599.872 35.354H598.299ZM530.66 76.109L544.96 67.815V68.959L530.803 77.11C530.803 76.824 530.66 76.395 530.66 76.109ZM600.015 35.926H601.588L592.865 41.074C592.579 40.931 592.293 40.788 592.007 40.502L600.015 35.926ZM601.302 35.354L604.305 33.495V34.496L602.875 35.354H601.302ZM530.946 77.682L544.96 69.674V70.675L531.232 78.683C531.232 78.254 531.089 77.968 530.946 77.682ZM603.161 35.926H603.876L602.303 37.499L594.152 42.075C593.866 41.932 593.58 41.789 593.437 41.503L603.161 35.926ZM531.518 79.255L544.96 71.39V72.391L531.661 79.97C531.661 79.827 531.518 79.541 531.518 79.255ZM594.724 42.647L600.587 39.215L598.299 41.503L595.439 43.219C595.153 43.076 595.01 42.79 594.724 42.647ZM531.947 80.828L544.96 73.249V74.25L532.233 81.543C532.233 81.257 532.09 81.114 531.947 80.828ZM532.519 82.258L544.96 74.965V75.966L532.805 82.973C532.805 82.83 532.662 82.544 532.519 82.258ZM533.234 83.688L544.96 76.824V77.825L533.52 84.403C533.377 84.26 533.234 83.974 533.234 83.688ZM533.806 85.118L544.96 78.683V79.541L534.235 85.833C534.092 85.547 533.949 85.404 533.806 85.118ZM534.521 86.405L544.96 80.399V81.4L534.807 87.12C534.664 86.977 534.664 86.691 534.521 86.405ZM535.236 87.978L544.96 82.115V83.116L535.665 88.693C535.522 88.407 535.379 88.121 535.236 87.978ZM535.951 89.122L544.96 83.974V84.975L536.523 89.837C536.38 89.694 536.094 89.408 535.951 89.122ZM536.809 90.552L544.96 85.833V86.691L537.381 91.124C537.095 90.981 536.952 90.695 536.809 90.552ZM537.667 91.696L544.96 87.549V88.55L538.239 92.411C538.096 92.268 537.953 91.982 537.667 91.696ZM538.668 92.983L544.96 89.408V90.266L539.097 93.698C538.954 93.412 538.811 93.269 538.668 92.983ZM543.959 98.846L544.96 98.417V99.275L544.674 99.418C544.388 99.275 544.245 99.132 543.959 98.846ZM546.533 100.991L556.114 95.414H557.83L547.248 101.563C546.962 101.42 546.676 101.277 546.533 100.991ZM547.82 101.992L559.26 95.414H560.976L548.535 102.564C548.249 102.421 547.963 102.278 547.82 101.992ZM549.107 102.993L562.406 95.414H563.979L549.965 103.565C549.679 103.422 549.393 103.136 549.107 102.993ZM550.537 103.994L565.409 95.414H567.125L551.395 104.423C551.109 104.28 550.823 104.137 550.537 103.994ZM552.11 104.852L568.412 95.414H570.128L552.968 105.424C552.682 105.281 552.396 104.995 552.11 104.852ZM553.683 105.71L571.558 95.414H573.131L554.541 106.282C554.255 106.139 553.969 105.853 553.683 105.71ZM557.115 107.426L577.707 95.414H579.28L558.116 107.855C557.687 107.712 557.401 107.569 557.115 107.426ZM558.831 108.141L580.853 95.414H582.426L559.975 108.57C559.546 108.427 559.26 108.284 558.831 108.141ZM560.833 108.856L583.856 95.414H585.429L561.834 109.142C561.405 108.999 561.119 108.856 560.833 108.856ZM562.835 109.428L587.002 95.414H588.575L564.265 109.714H563.693C563.407 109.571 563.121 109.428 562.835 109.428ZM565.409 109.714L590.005 95.414H591.721L567.125 109.714H565.409ZM567.411 110.286H568.984L568.555 110.572C568.126 110.572 567.697 110.429 567.411 110.286ZM568.555 109.714L593.151 95.414H594.867L570.128 109.714H568.555ZM570.271 110.286H572.273L571.272 110.858C570.7 110.858 570.128 110.858 569.556 110.715L570.271 110.286ZM571.558 109.714L596.154 95.414H598.013L573.417 109.714H571.558ZM573.417 110.286H575.133L573.989 111.001C573.417 111.001 572.845 111.001 572.273 111.001L573.417 110.286ZM574.561 109.714L599.3 95.414H600.873L576.42 109.714H574.561ZM576.563 110.286H578.136L576.992 111.001C576.42 111.001 575.848 111.144 575.276 111.144L576.563 110.286ZM577.707 109.714L602.446 95.414H604.019L579.423 109.714H577.707ZM579.566 110.286H581.282L580.567 110.715C579.995 110.858 579.28 110.858 578.565 111.001L579.566 110.286ZM580.853 109.714L604.305 96.129V96.987L582.426 109.714H580.853ZM582.712 110.286H583.141C582.998 110.429 582.712 110.429 582.569 110.429L582.712 110.286ZM583.999 109.714L604.305 97.845V98.846L585.715 109.714H583.999ZM591.435 108.141C590.148 108.57 589.004 108.999 587.717 109.285L604.305 99.704V100.562C604.162 100.562 604.019 100.705 603.876 100.848L591.435 108.141Z" fill="white"/>
</svg>
